<?xml version="1.0" encoding="utf-8"?>
<!-- Generator: Adobe Illustrator 15.0.0, SVG Export Plug-In . SVG Version: 6.00 Build 0)  -->
<!DOCTYPE svg PUBLIC "-//W3C//DTD SVG 1.1//EN" "http://www.w3.org/Graphics/SVG/1.1/DTD/svg11.dtd">
<svg version="1.1" id="Capa_1" xmlns="http://www.w3.org/2000/svg" xmlns:xlink="http://www.w3.org/1999/xlink" x="0px" y="0px"
	 width="730px" height="950px" viewBox="0 0 730 950" enable-background="new 0 0 730 950" xml:space="preserve">
<g id="Capa_3">
	<rect fill="#FFFFFF" width="730" height="950"/>
	<g>
		<line fill="none" stroke="#000000" stroke-miterlimit="10" x1="363.432" y1="67.872" x2="363.432" y2="102.372"/>
		<g>
			<rect x="50.667" y="33.372" fill="none" stroke="#000000" stroke-miterlimit="10" width="634.451" height="69"/>
			<rect x="202.461" y="33.372" fill="none" stroke="#000000" stroke-miterlimit="10" width="356.359" height="69"/>
			<line fill="none" stroke="#000000" stroke-miterlimit="10" x1="202.461" y1="67.872" x2="558.82" y2="67.872"/>
			<line fill="none" stroke="#000000" stroke-miterlimit="10" x1="558.82" y1="50.973" x2="685.118" y2="50.973"/>
			<line fill="none" stroke="#000000" stroke-miterlimit="10" x1="202.461" y1="84.822" x2="685.118" y2="84.822"/>
		</g>
		<g>
			<path d="M243.055,72.031h3.17c0.715,0,1.26,0.055,1.635,0.164c0.504,0.148,0.936,0.412,1.295,0.791
				c0.359,0.379,0.633,0.843,0.82,1.392s0.281,1.226,0.281,2.03c0,0.707-0.088,1.316-0.264,1.828
				c-0.215,0.625-0.521,1.131-0.92,1.518c-0.301,0.293-0.707,0.521-1.219,0.686c-0.383,0.121-0.895,0.182-1.535,0.182h-3.264
				L243.055,72.031L243.055,72.031z M244.79,73.484v5.689h1.295c0.484,0,0.834-0.027,1.049-0.082c0.281-0.07,0.515-0.189,0.7-0.357
				s0.337-0.444,0.454-0.829c0.117-0.385,0.176-0.909,0.176-1.573s-0.059-1.174-0.176-1.529c-0.117-0.354-0.281-0.633-0.492-0.832
				c-0.211-0.199-0.479-0.334-0.803-0.404c-0.242-0.055-0.717-0.082-1.424-0.082L244.79,73.484L244.79,73.484z"/>
			<path d="M255.319,78.64l1.641,0.275c-0.211,0.602-0.544,1.06-0.999,1.374s-1.024,0.472-1.708,0.472
				c-1.082,0-1.883-0.354-2.402-1.061c-0.41-0.566-0.615-1.281-0.615-2.145c0-1.031,0.27-1.839,0.809-2.423s1.221-0.876,2.045-0.876
				c0.926,0,1.656,0.306,2.191,0.917c0.535,0.611,0.791,1.548,0.768,2.81h-4.125c0.012,0.488,0.145,0.868,0.398,1.14
				c0.253,0.272,0.57,0.407,0.949,0.407c0.258,0,0.475-0.07,0.65-0.211C255.096,79.178,255.229,78.953,255.319,78.64z
				 M255.413,76.976c-0.012-0.477-0.135-0.839-0.369-1.087s-0.52-0.372-0.855-0.372c-0.359,0-0.656,0.131-0.891,0.393
				c-0.235,0.262-0.35,0.617-0.346,1.066H255.413z"/>
			<path d="M258.342,74.398h1.535v0.914c0.199-0.313,0.469-0.566,0.809-0.762c0.34-0.196,0.717-0.293,1.131-0.293
				c0.723,0,1.336,0.283,1.84,0.85c0.504,0.567,0.756,1.355,0.756,2.367c0,1.039-0.254,1.847-0.762,2.423
				c-0.508,0.576-1.123,0.864-1.846,0.864c-0.344,0-0.655-0.068-0.935-0.205c-0.28-0.137-0.573-0.371-0.882-0.703v3.135h-1.646
				V74.398L258.342,74.398z M259.971,77.404c0,0.699,0.139,1.216,0.416,1.55c0.277,0.334,0.615,0.501,1.014,0.501
				c0.383,0,0.701-0.153,0.955-0.46c0.254-0.307,0.381-0.81,0.381-1.509c0-0.652-0.131-1.137-0.393-1.453
				c-0.262-0.316-0.586-0.475-0.973-0.475c-0.402,0-0.736,0.155-1.002,0.466C260.103,76.335,259.971,76.794,259.971,77.404z"/>
			<path d="M266.95,76.296l-1.494-0.27c0.168-0.602,0.457-1.047,0.867-1.336c0.41-0.289,1.02-0.434,1.828-0.434
				c0.734,0,1.281,0.087,1.641,0.261c0.36,0.174,0.612,0.395,0.759,0.662c0.147,0.267,0.22,0.759,0.22,1.474l-0.018,1.922
				c0,0.547,0.026,0.95,0.079,1.21c0.053,0.26,0.151,0.538,0.296,0.835h-1.629c-0.043-0.109-0.096-0.271-0.158-0.486
				c-0.027-0.098-0.047-0.162-0.059-0.193c-0.281,0.273-0.582,0.479-0.902,0.615c-0.32,0.136-0.662,0.205-1.025,0.205
				c-0.641,0-1.146-0.174-1.515-0.521c-0.369-0.347-0.554-0.787-0.554-1.318c0-0.352,0.084-0.665,0.252-0.94
				s0.403-0.486,0.706-0.633c0.303-0.147,0.739-0.274,1.31-0.384c0.77-0.145,1.303-0.279,1.6-0.404v-0.164
				c0-0.316-0.078-0.542-0.234-0.677c-0.156-0.135-0.451-0.202-0.885-0.202c-0.293,0-0.521,0.058-0.686,0.173
				C267.184,75.806,267.051,76.007,266.95,76.296z M269.153,77.632c-0.211,0.07-0.545,0.154-1.002,0.252
				c-0.457,0.098-0.756,0.193-0.896,0.287c-0.215,0.152-0.322,0.346-0.322,0.58c0,0.23,0.086,0.43,0.258,0.598
				s0.391,0.252,0.656,0.252c0.297,0,0.58-0.098,0.85-0.293c0.199-0.148,0.33-0.33,0.393-0.545c0.043-0.141,0.064-0.408,0.064-0.803
				L269.153,77.632L269.153,77.632z"/>
			<path d="M273.969,80.621h-1.646v-6.223h1.529v0.885c0.262-0.418,0.497-0.693,0.706-0.826s0.446-0.199,0.712-0.199
				c0.375,0,0.736,0.104,1.084,0.311l-0.51,1.436c-0.277-0.18-0.535-0.27-0.773-0.27c-0.23,0-0.426,0.063-0.586,0.19
				c-0.16,0.127-0.286,0.356-0.378,0.688c-0.092,0.332-0.138,1.027-0.138,2.086V80.621z"/>
			<path d="M279.917,74.398v1.313h-1.125v2.508c0,0.508,0.011,0.804,0.032,0.888c0.021,0.084,0.07,0.153,0.146,0.208
				c0.076,0.055,0.169,0.082,0.278,0.082c0.152,0,0.373-0.053,0.662-0.158l0.141,1.277c-0.383,0.164-0.816,0.246-1.301,0.246
				c-0.297,0-0.564-0.05-0.803-0.149c-0.239-0.099-0.413-0.229-0.524-0.387c-0.111-0.158-0.188-0.372-0.231-0.642
				c-0.035-0.191-0.053-0.578-0.053-1.16V75.71h-0.756v-1.313h0.756v-1.236l1.652-0.961v2.197L279.917,74.398L279.917,74.398z"/>
			<path d="M282.29,76.296l-1.494-0.27c0.168-0.602,0.457-1.047,0.867-1.336s1.02-0.434,1.828-0.434
				c0.734,0,1.281,0.087,1.641,0.261c0.36,0.174,0.612,0.395,0.759,0.662s0.22,0.759,0.22,1.474l-0.018,1.922
				c0,0.547,0.026,0.95,0.079,1.21c0.053,0.26,0.151,0.538,0.296,0.835h-1.629c-0.043-0.109-0.096-0.271-0.158-0.486
				c-0.027-0.098-0.047-0.162-0.059-0.193c-0.281,0.273-0.582,0.479-0.902,0.615c-0.32,0.136-0.662,0.205-1.025,0.205
				c-0.641,0-1.146-0.174-1.515-0.521c-0.369-0.347-0.554-0.787-0.554-1.318c0-0.352,0.084-0.665,0.252-0.94
				s0.403-0.486,0.706-0.633c0.303-0.147,0.739-0.274,1.31-0.384c0.77-0.145,1.303-0.279,1.6-0.404v-0.164
				c0-0.316-0.078-0.542-0.234-0.677c-0.156-0.135-0.451-0.202-0.885-0.202c-0.293,0-0.521,0.058-0.686,0.173
				C282.524,75.806,282.391,76.007,282.29,76.296z M284.493,77.632c-0.211,0.07-0.545,0.154-1.002,0.252
				c-0.457,0.098-0.756,0.193-0.896,0.287c-0.215,0.152-0.322,0.346-0.322,0.58c0,0.23,0.086,0.43,0.258,0.598
				c0.172,0.168,0.391,0.252,0.656,0.252c0.297,0,0.58-0.098,0.85-0.293c0.199-0.148,0.33-0.33,0.393-0.545
				c0.043-0.141,0.064-0.408,0.064-0.803L284.493,77.632L284.493,77.632z"/>
			<path d="M287.61,74.398h1.518v0.85c0.543-0.66,1.189-0.99,1.939-0.99c0.398,0,0.744,0.082,1.037,0.246s0.533,0.412,0.721,0.744
				c0.273-0.332,0.568-0.58,0.885-0.744s0.654-0.246,1.014-0.246c0.457,0,0.844,0.093,1.16,0.278
				c0.316,0.185,0.553,0.458,0.709,0.817c0.113,0.266,0.17,0.695,0.17,1.289v3.979h-1.646v-3.557c0-0.617-0.057-1.016-0.17-1.195
				c-0.152-0.234-0.387-0.352-0.703-0.352c-0.23,0-0.447,0.07-0.65,0.211c-0.203,0.141-0.35,0.347-0.438,0.618
				c-0.089,0.271-0.135,0.7-0.135,1.286v2.988h-1.646v-3.41c0-0.605-0.029-0.996-0.088-1.172c-0.059-0.176-0.149-0.307-0.272-0.393
				s-0.29-0.129-0.501-0.129c-0.254,0-0.482,0.068-0.686,0.205c-0.204,0.137-0.349,0.334-0.437,0.592
				c-0.088,0.258-0.132,0.686-0.132,1.283v3.023h-1.646v-6.221H287.61z"/>
			<path d="M302.006,78.64l1.641,0.275c-0.211,0.602-0.543,1.06-0.998,1.374s-1.024,0.472-1.708,0.472
				c-1.082,0-1.884-0.354-2.402-1.061c-0.41-0.566-0.615-1.281-0.615-2.145c0-1.031,0.271-1.839,0.81-2.423s1.221-0.876,2.045-0.876
				c0.926,0,1.655,0.306,2.19,0.917c0.535,0.611,0.791,1.548,0.769,2.81h-4.125c0.012,0.488,0.145,0.868,0.397,1.14
				s0.57,0.407,0.949,0.407c0.258,0,0.475-0.07,0.65-0.211C301.783,79.178,301.917,78.953,302.006,78.64z M302.1,76.976
				c-0.012-0.477-0.135-0.839-0.368-1.087c-0.234-0.248-0.521-0.372-0.855-0.372c-0.359,0-0.656,0.131-0.891,0.393
				c-0.235,0.262-0.351,0.617-0.347,1.066H302.1z"/>
			<path d="M310.737,80.621h-1.646v-3.176c0-0.672-0.035-1.106-0.104-1.304c-0.07-0.198-0.186-0.351-0.344-0.46
				c-0.157-0.109-0.349-0.164-0.57-0.164c-0.285,0-0.541,0.078-0.771,0.234c-0.227,0.156-0.382,0.363-0.466,0.621
				s-0.126,0.734-0.126,1.43v2.818h-1.646v-6.223h1.528v0.914c0.543-0.703,1.228-1.055,2.051-1.055c0.363,0,0.695,0.065,0.996,0.196
				c0.302,0.131,0.528,0.298,0.684,0.501s0.262,0.434,0.321,0.691c0.061,0.257,0.092,0.627,0.092,1.107L310.737,80.621
				L310.737,80.621z"/>
			<path d="M315.26,74.398v1.313h-1.125v2.508c0,0.508,0.012,0.804,0.032,0.888c0.021,0.084,0.07,0.153,0.146,0.208
				c0.076,0.055,0.17,0.082,0.278,0.082c0.152,0,0.373-0.053,0.662-0.158l0.142,1.277c-0.384,0.164-0.816,0.246-1.302,0.246
				c-0.297,0-0.563-0.05-0.803-0.149c-0.239-0.099-0.413-0.229-0.524-0.387c-0.11-0.158-0.188-0.372-0.23-0.642
				c-0.035-0.191-0.053-0.578-0.053-1.16V75.71h-0.757v-1.313h0.757v-1.236l1.651-0.961v2.197L315.26,74.398L315.26,74.398z"/>
			<path d="M316.021,77.421c0-0.547,0.136-1.076,0.404-1.588c0.27-0.512,0.651-0.902,1.146-1.172s1.046-0.404,1.654-0.404
				c0.941,0,1.714,0.306,2.314,0.917c0.601,0.611,0.902,1.384,0.902,2.317c0,0.941-0.305,1.722-0.911,2.341
				c-0.607,0.619-1.372,0.929-2.294,0.929c-0.57,0-1.114-0.129-1.633-0.387c-0.518-0.258-0.91-0.636-1.181-1.134
				C316.155,78.742,316.021,78.136,316.021,77.421z M317.709,77.509c0,0.617,0.146,1.09,0.439,1.418
				c0.293,0.328,0.653,0.492,1.084,0.492c0.43,0,0.79-0.164,1.08-0.492c0.291-0.328,0.438-0.805,0.438-1.43
				c0-0.609-0.146-1.078-0.438-1.406c-0.29-0.328-0.65-0.492-1.08-0.492c-0.431,0-0.791,0.164-1.084,0.492
				C317.855,76.419,317.709,76.892,317.709,77.509z"/>
		</g>
		<g>
			<path d="M438.75,97.323v-8.59h1.688l3.519,5.736v-5.736h1.609v8.59h-1.738l-3.463-5.602v5.602H438.75z"/>
			<path d="M447.047,93.081c0-0.875,0.131-1.609,0.396-2.203c0.192-0.438,0.463-0.83,0.801-1.178
				c0.338-0.348,0.707-0.605,1.106-0.773c0.535-0.227,1.152-0.34,1.854-0.34c1.266,0,2.278,0.393,3.039,1.178
				c0.76,0.785,1.139,1.877,1.139,3.275c0,1.387-0.377,2.472-1.131,3.255c-0.754,0.783-1.762,1.175-3.023,1.175
				c-1.274,0-2.293-0.39-3.047-1.169C447.425,95.522,447.047,94.448,447.047,93.081z M448.834,93.022
				c0,0.973,0.225,1.71,0.674,2.212s1.021,0.753,1.711,0.753c0.691,0,1.26-0.249,1.703-0.747c0.443-0.498,0.664-1.245,0.664-2.241
				c0-0.984-0.215-1.719-0.646-2.203c-0.434-0.484-1.009-0.727-1.724-0.727s-1.291,0.245-1.729,0.735
				C449.052,91.294,448.834,92.034,448.834,93.022z"/>
			<path d="M456.709,97.323v-8.59h2.596l1.562,5.859l1.541-5.859h2.602v8.59H463.4v-6.762l-1.705,6.762h-1.67l-1.699-6.762v6.762
				H456.709z"/>
			<path d="M466.529,95.032v-1.646h3.231v1.646H466.529z"/>
			<path d="M473.145,88.698c0.832,0,1.482,0.297,1.951,0.891c0.562,0.703,0.838,1.869,0.838,3.498c0,1.625-0.278,2.793-0.844,3.504
				c-0.465,0.586-1.113,0.879-1.945,0.879c-0.836,0-1.51-0.321-2.021-0.964s-0.769-1.788-0.769-3.437
				c0-1.617,0.279-2.781,0.845-3.492C471.664,88.991,472.313,88.698,473.145,88.698z M473.145,90.063
				c-0.196,0-0.377,0.063-0.53,0.19c-0.156,0.127-0.277,0.354-0.363,0.683c-0.113,0.426-0.17,1.143-0.17,2.15s0.051,1.7,0.149,2.077
				c0.104,0.377,0.23,0.628,0.388,0.753s0.33,0.188,0.526,0.188c0.199,0,0.377-0.063,0.533-0.19s0.277-0.354,0.363-0.683
				c0.113-0.422,0.17-1.137,0.17-2.145s-0.051-1.7-0.152-2.077c-0.101-0.377-0.229-0.629-0.383-0.756S473.344,90.063,473.145,90.063
				z"/>
			<path d="M476.977,95.044l1.597-0.193c0.051,0.406,0.188,0.717,0.407,0.932c0.225,0.215,0.492,0.322,0.812,0.322
				c0.34,0,0.627-0.129,0.859-0.387c0.229-0.258,0.348-0.605,0.348-1.043c0-0.414-0.111-0.742-0.334-0.984
				c-0.226-0.242-0.494-0.363-0.814-0.363c-0.211,0-0.463,0.041-0.756,0.123l0.185-1.342c0.442,0.012,0.782-0.085,1.02-0.29
				c0.235-0.205,0.353-0.478,0.353-0.817c0-0.289-0.087-0.52-0.259-0.691s-0.397-0.258-0.686-0.258
				c-0.281,0-0.521,0.098-0.721,0.293c-0.2,0.195-0.32,0.48-0.363,0.855l-1.521-0.258c0.105-0.52,0.269-0.935,0.479-1.245
				c0.213-0.31,0.51-0.555,0.891-0.732c0.381-0.177,0.81-0.267,1.279-0.267c0.809,0,1.457,0.258,1.945,0.773
				c0.399,0.422,0.604,0.898,0.604,1.43c0,0.754-0.412,1.355-1.234,1.805c0.49,0.105,0.888,0.342,1.183,0.709
				s0.438,0.811,0.438,1.33c0,0.754-0.272,1.396-0.823,1.928c-0.554,0.532-1.236,0.797-2.06,0.797c-0.774,0-1.422-0.224-1.934-0.671
				C477.357,96.353,477.059,95.767,476.977,95.044z"/>
			<path d="M483.732,95.114l1.641-0.17c0.047,0.371,0.186,0.665,0.416,0.882c0.229,0.217,0.496,0.325,0.797,0.325
				c0.344,0,0.635-0.14,0.873-0.419s0.357-0.7,0.357-1.263c0-0.527-0.117-0.923-0.354-1.187c-0.237-0.264-0.545-0.396-0.924-0.396
				c-0.474,0-0.896,0.209-1.271,0.627l-1.336-0.193l0.847-4.471h4.354v1.541h-3.104l-0.26,1.459
				c0.367-0.184,0.742-0.275,1.125-0.275c0.73,0,1.353,0.266,1.857,0.797c0.507,0.531,0.762,1.221,0.762,2.068
				c0,0.707-0.205,1.338-0.615,1.893c-0.559,0.758-1.334,1.137-2.323,1.137c-0.793,0-1.439-0.213-1.939-0.639
				C484.13,96.404,483.83,95.833,483.732,95.114z"/>
		</g>
		<g>
			<path d="M395.465,80.621v-8.59h1.688l3.516,5.736v-5.736h1.611v8.59h-1.74l-3.463-5.602v5.602H395.465z"/>
			<path d="M403.721,77.421c0-0.547,0.138-1.076,0.404-1.588c0.27-0.512,0.652-0.902,1.146-1.172
				c0.491-0.27,1.045-0.404,1.651-0.404c0.941,0,1.713,0.306,2.314,0.917c0.601,0.611,0.899,1.384,0.899,2.317
				c0,0.941-0.303,1.722-0.91,2.341c-0.604,0.619-1.371,0.929-2.295,0.929c-0.567,0-1.11-0.129-1.631-0.387
				c-0.518-0.258-0.912-0.636-1.182-1.134C403.854,78.742,403.721,78.136,403.721,77.421z M405.408,77.509
				c0,0.617,0.146,1.09,0.438,1.418c0.293,0.328,0.654,0.492,1.084,0.492c0.433,0,0.791-0.164,1.082-0.492
				c0.291-0.328,0.438-0.805,0.438-1.43c0-0.609-0.146-1.078-0.438-1.406c-0.291-0.328-0.649-0.492-1.082-0.492
				c-0.43,0-0.791,0.164-1.084,0.492C405.554,76.419,405.408,76.892,405.408,77.509z"/>
			<path d="M411.309,74.398h1.521v0.85c0.543-0.66,1.188-0.99,1.938-0.99c0.398,0,0.744,0.082,1.037,0.246s0.533,0.412,0.724,0.744
				c0.271-0.332,0.565-0.58,0.885-0.744c0.314-0.164,0.652-0.246,1.014-0.246c0.457,0,0.844,0.093,1.16,0.278
				s0.553,0.458,0.709,0.817c0.113,0.266,0.17,0.695,0.17,1.289v3.979h-1.646v-3.557c0-0.617-0.06-1.016-0.171-1.195
				c-0.151-0.234-0.389-0.352-0.702-0.352c-0.23,0-0.447,0.07-0.65,0.211s-0.35,0.347-0.438,0.618
				c-0.091,0.271-0.137,0.7-0.137,1.286v2.988h-1.646v-3.41c0-0.605-0.029-0.996-0.088-1.172c-0.062-0.176-0.148-0.307-0.271-0.393
				s-0.291-0.129-0.502-0.129c-0.254,0-0.479,0.068-0.686,0.205c-0.204,0.137-0.351,0.334-0.438,0.592
				c-0.088,0.258-0.133,0.686-0.133,1.283v3.023h-1.646v-6.221H411.309z"/>
			<path d="M422.031,80.621v-8.59h1.646v3.094c0.508-0.578,1.109-0.867,1.808-0.867c0.758,0,1.385,0.274,1.881,0.823
				s0.744,1.337,0.744,2.364c0,1.063-0.253,1.881-0.761,2.455c-0.506,0.574-1.12,0.861-1.844,0.861
				c-0.354,0-0.705-0.089-1.051-0.267c-0.346-0.178-0.646-0.44-0.896-0.788v0.914L422.031,80.621L422.031,80.621z M423.666,77.375
				c0,0.645,0.102,1.121,0.305,1.43c0.285,0.438,0.664,0.656,1.14,0.656c0.36,0,0.674-0.155,0.93-0.466s0.383-0.8,0.383-1.468
				c0-0.711-0.129-1.224-0.387-1.538c-0.258-0.314-0.588-0.472-0.99-0.472c-0.395,0-0.723,0.153-0.983,0.46
				C423.801,76.284,423.666,76.75,423.666,77.375z"/>
			<path d="M431.008,80.621h-1.646v-6.223h1.526v0.885c0.265-0.418,0.498-0.693,0.707-0.826s0.445-0.199,0.711-0.199
				c0.375,0,0.736,0.104,1.084,0.311l-0.51,1.436c-0.275-0.18-0.535-0.27-0.771-0.27c-0.23,0-0.429,0.063-0.586,0.19
				c-0.16,0.127-0.285,0.356-0.378,0.688c-0.094,0.332-0.141,1.027-0.141,2.086L431.008,80.621L431.008,80.621z"/>
			<path d="M437.705,78.64l1.641,0.275c-0.211,0.602-0.543,1.06-0.998,1.374s-1.022,0.472-1.709,0.472
				c-1.082,0-1.883-0.354-2.399-1.061c-0.41-0.566-0.615-1.281-0.615-2.145c0-1.031,0.27-1.839,0.809-2.423s1.224-0.876,2.046-0.876
				c0.928,0,1.655,0.306,2.19,0.917c0.535,0.611,0.791,1.548,0.769,2.81h-4.125c0.014,0.488,0.146,0.868,0.397,1.14
				s0.57,0.407,0.949,0.407c0.258,0,0.475-0.07,0.647-0.211C437.482,79.178,437.615,78.953,437.705,78.64z M437.799,76.976
				c-0.012-0.477-0.135-0.839-0.369-1.087c-0.231-0.248-0.52-0.372-0.854-0.372c-0.359,0-0.656,0.131-0.894,0.393
				c-0.232,0.262-0.35,0.617-0.346,1.066H437.799z"/>
			<path d="M449.816,80.621h-1.529v-0.914c-0.254,0.355-0.553,0.62-0.898,0.794c-0.345,0.174-0.692,0.261-1.047,0.261
				c-0.715,0-1.326-0.288-1.836-0.864c-0.51-0.576-0.766-1.38-0.766-2.411c0-1.055,0.248-1.856,0.744-2.405s1.123-0.823,1.881-0.823
				c0.695,0,1.297,0.289,1.805,0.867v-3.094h1.646V80.621z M445.422,77.375c0,0.664,0.092,1.145,0.275,1.441
				c0.266,0.43,0.637,0.645,1.11,0.645c0.382,0,0.701-0.161,0.97-0.483c0.266-0.322,0.396-0.804,0.396-1.444
				c0-0.715-0.129-1.229-0.387-1.544c-0.258-0.315-0.588-0.472-0.99-0.472c-0.391,0-0.717,0.155-0.979,0.466
				C445.555,76.295,445.422,76.757,445.422,77.375z"/>
			<path d="M455.043,78.64l1.641,0.275c-0.211,0.602-0.543,1.06-0.998,1.374c-0.452,0.314-1.022,0.472-1.709,0.472
				c-1.082,0-1.883-0.354-2.399-1.061c-0.41-0.566-0.615-1.281-0.615-2.145c0-1.031,0.271-1.839,0.81-2.423s1.223-0.876,2.047-0.876
				c0.926,0,1.653,0.306,2.188,0.917c0.535,0.611,0.791,1.548,0.771,2.81h-4.125c0.012,0.488,0.145,0.868,0.396,1.14
				s0.57,0.407,0.949,0.407c0.258,0,0.475-0.07,0.647-0.211C454.82,79.178,454.953,78.953,455.043,78.64z M455.137,76.976
				c-0.012-0.477-0.135-0.839-0.369-1.087c-0.231-0.248-0.52-0.372-0.854-0.372c-0.359,0-0.656,0.131-0.893,0.393
				c-0.233,0.262-0.351,0.617-0.347,1.066H455.137z"/>
			<path d="M458.113,80.621v-8.59h1.646v8.59H458.113z"/>
			<path d="M470.488,80.621h-1.529v-0.914c-0.254,0.355-0.553,0.62-0.898,0.794c-0.345,0.174-0.692,0.261-1.047,0.261
				c-0.715,0-1.326-0.288-1.836-0.864c-0.51-0.576-0.766-1.38-0.766-2.411c0-1.055,0.248-1.856,0.744-2.405s1.123-0.823,1.881-0.823
				c0.695,0,1.297,0.289,1.805,0.867v-3.094h1.646V80.621z M466.094,77.375c0,0.664,0.092,1.145,0.275,1.441
				c0.266,0.43,0.637,0.645,1.113,0.645c0.379,0,0.698-0.161,0.967-0.483c0.266-0.322,0.396-0.804,0.396-1.444
				c0-0.715-0.129-1.229-0.387-1.544c-0.258-0.315-0.588-0.472-0.99-0.472c-0.391,0-0.717,0.155-0.979,0.466
				C466.227,76.295,466.094,76.757,466.094,77.375z"/>
			<path d="M471.73,77.421c0-0.547,0.135-1.076,0.401-1.588c0.271-0.512,0.652-0.902,1.146-1.172
				c0.493-0.27,1.045-0.404,1.651-0.404c0.941,0,1.713,0.306,2.314,0.917c0.601,0.611,0.902,1.384,0.902,2.317
				c0,0.941-0.306,1.722-0.91,2.341c-0.607,0.619-1.373,0.929-2.295,0.929c-0.57,0-1.113-0.129-1.632-0.387
				c-0.52-0.258-0.911-0.636-1.184-1.134C471.862,78.742,471.73,78.136,471.73,77.421z M473.418,77.509
				c0,0.617,0.146,1.09,0.439,1.418c0.293,0.328,0.651,0.492,1.084,0.492c0.43,0,0.791-0.164,1.082-0.492
				c0.291-0.328,0.436-0.805,0.436-1.43c0-0.609-0.145-1.078-0.436-1.406c-0.291-0.328-0.652-0.492-1.082-0.492
				c-0.433,0-0.791,0.164-1.084,0.492C473.564,76.419,473.418,76.892,473.418,77.509z"/>
			<path d="M484.867,76.238l-1.623,0.293c-0.055-0.324-0.178-0.568-0.371-0.732s-0.445-0.246-0.754-0.246
				c-0.41,0-0.736,0.142-0.98,0.425c-0.244,0.283-0.367,0.757-0.367,1.421c0,0.738,0.125,1.26,0.373,1.564
				c0.248,0.304,0.58,0.457,0.998,0.457c0.313,0,0.568-0.089,0.771-0.267c0.2-0.178,0.34-0.483,0.422-0.917l1.617,0.275
				c-0.168,0.742-0.49,1.303-0.967,1.682c-0.479,0.379-1.115,0.568-1.916,0.568c-0.91,0-1.638-0.287-2.179-0.861
				c-0.541-0.574-0.813-1.369-0.813-2.385c0-1.027,0.271-1.827,0.813-2.399c0.543-0.572,1.277-0.858,2.203-0.858
				c0.76,0,1.361,0.163,1.812,0.489C484.352,75.073,484.672,75.57,484.867,76.238z"/>
			<path d="M490.211,80.621v-0.932c-0.227,0.332-0.523,0.594-0.893,0.785c-0.37,0.191-0.763,0.287-1.17,0.287
				c-0.418,0-0.793-0.092-1.125-0.275s-0.572-0.441-0.724-0.773c-0.146-0.332-0.223-0.791-0.223-1.377v-3.938h1.646v2.859
				c0,0.875,0.031,1.411,0.095,1.608c0.061,0.197,0.17,0.354,0.329,0.469c0.158,0.115,0.361,0.173,0.607,0.173
				c0.281,0,0.533-0.077,0.756-0.231c0.226-0.154,0.375-0.346,0.457-0.574s0.123-0.788,0.123-1.679v-2.625h1.646v6.223H490.211z"/>
			<path d="M493.322,74.398h1.518v0.85c0.543-0.66,1.189-0.99,1.939-0.99c0.396,0,0.744,0.082,1.037,0.246s0.53,0.412,0.721,0.744
				c0.271-0.332,0.568-0.58,0.885-0.744c0.317-0.164,0.654-0.246,1.014-0.246c0.457,0,0.847,0.093,1.16,0.278
				c0.316,0.185,0.556,0.458,0.709,0.817c0.113,0.266,0.17,0.695,0.17,1.289v3.979h-1.646v-3.557c0-0.617-0.057-1.016-0.17-1.195
				c-0.152-0.234-0.387-0.352-0.703-0.352c-0.23,0-0.447,0.07-0.65,0.211c-0.202,0.141-0.35,0.347-0.438,0.618
				s-0.135,0.7-0.135,1.286v2.988h-1.646v-3.41c0-0.605-0.029-0.996-0.088-1.172c-0.059-0.176-0.148-0.307-0.271-0.393
				c-0.123-0.086-0.291-0.129-0.504-0.129c-0.254,0-0.479,0.068-0.686,0.205c-0.204,0.137-0.348,0.334-0.438,0.592
				c-0.089,0.258-0.134,0.686-0.134,1.283v3.023h-1.646V74.398L493.322,74.398z"/>
			<path d="M507.719,78.64l1.644,0.275c-0.211,0.602-0.543,1.06-0.998,1.374s-1.025,0.472-1.709,0.472
				c-1.082,0-1.886-0.354-2.402-1.061c-0.41-0.566-0.615-1.281-0.615-2.145c0-1.031,0.271-1.839,0.812-2.423
				s1.221-0.876,2.045-0.876c0.926,0,1.656,0.306,2.188,0.917c0.535,0.611,0.791,1.548,0.771,2.81h-4.125
				c0.012,0.488,0.145,0.868,0.396,1.14s0.57,0.407,0.949,0.407c0.258,0,0.478-0.07,0.65-0.211S507.629,78.953,507.719,78.64z
				 M507.813,76.976c-0.012-0.477-0.135-0.839-0.366-1.087c-0.234-0.248-0.521-0.372-0.855-0.372c-0.356,0-0.656,0.131-0.891,0.393
				c-0.235,0.262-0.353,0.617-0.349,1.066H507.813z"/>
			<path d="M516.449,80.621h-1.646v-3.176c0-0.672-0.035-1.106-0.104-1.304c-0.07-0.198-0.187-0.351-0.342-0.46
				c-0.158-0.109-0.353-0.164-0.572-0.164c-0.285,0-0.541,0.078-0.771,0.234c-0.227,0.156-0.381,0.363-0.465,0.621
				s-0.127,0.734-0.127,1.43v2.818h-1.646v-6.223h1.526v0.914c0.543-0.703,1.229-1.055,2.053-1.055c0.361,0,0.693,0.065,0.994,0.196
				c0.304,0.131,0.529,0.298,0.687,0.501c0.156,0.203,0.262,0.434,0.322,0.691c0.06,0.257,0.09,0.627,0.09,1.107V80.621
				L516.449,80.621z"/>
			<path d="M520.973,74.398v1.313h-1.125v2.508c0,0.508,0.015,0.804,0.033,0.888c0.021,0.084,0.07,0.153,0.146,0.208
				s0.168,0.082,0.274,0.082c0.152,0,0.373-0.053,0.662-0.158l0.144,1.277c-0.386,0.164-0.816,0.246-1.304,0.246
				c-0.297,0-0.563-0.05-0.803-0.149c-0.239-0.099-0.412-0.229-0.521-0.387c-0.111-0.158-0.189-0.372-0.232-0.642
				c-0.035-0.191-0.053-0.578-0.053-1.16V75.71h-0.756v-1.313h0.756v-1.236l1.649-0.961v2.197L520.973,74.398L520.973,74.398z"/>
			<path d="M521.734,77.421c0-0.547,0.135-1.076,0.401-1.588c0.271-0.512,0.652-0.902,1.146-1.172s1.045-0.404,1.651-0.404
				c0.941,0,1.716,0.306,2.314,0.917c0.602,0.611,0.902,1.384,0.902,2.317c0,0.941-0.306,1.722-0.91,2.341
				c-0.607,0.619-1.373,0.929-2.295,0.929c-0.57,0-1.113-0.129-1.631-0.387c-0.521-0.258-0.912-0.636-1.185-1.134
				C521.866,78.742,521.734,78.136,521.734,77.421z M523.422,77.509c0,0.617,0.146,1.09,0.439,1.418
				c0.293,0.328,0.651,0.492,1.084,0.492c0.43,0,0.791-0.164,1.082-0.492c0.291-0.328,0.436-0.805,0.436-1.43
				c0-0.609-0.145-1.078-0.436-1.406c-0.291-0.328-0.652-0.492-1.082-0.492c-0.433,0-0.791,0.164-1.084,0.492
				C523.568,76.419,523.422,76.892,523.422,77.509z"/>
		</g>
		<g>
			<path fill="#A7A6A7" d="M593.884,67.982c0,4.371,3.543,7.914,7.914,7.914h48.4c4.371,0,7.914-3.543,7.914-7.914l0,0
				c0-4.371-3.543-7.914-7.914-7.914h-48.4C597.427,60.068,593.884,63.611,593.884,67.982L593.884,67.982z"/>
			<circle fill="#FFFFFF" stroke="#A7A6A7" stroke-miterlimit="10" cx="595.156" cy="67.872" r="9.33"/>
			<g>
				<path fill="#FFFFFF" d="M608.375,64.993v3.378c0,1.021,0.394,1.534,1.064,1.534c0.696,0,1.082-0.488,1.082-1.534v-3.378h1.324
					v3.299c0,1.814-0.916,2.68-2.453,2.68c-1.48,0-2.347-0.83-2.347-2.697v-3.282H608.375z"/>
				<path fill="#FFFFFF" d="M612.835,69.724c0.243,0.148,0.751,0.314,1.144,0.314c0.4,0,0.566-0.133,0.566-0.35
					c0-0.228-0.131-0.332-0.619-0.498c-0.891-0.297-1.229-0.776-1.223-1.282c0-0.803,0.682-1.405,1.738-1.405
					c0.492,0,0.932,0.122,1.191,0.253l-0.228,0.917c-0.192-0.104-0.566-0.244-0.929-0.244c-0.319,0-0.506,0.13-0.506,0.34
					s0.166,0.314,0.689,0.497c0.812,0.279,1.143,0.698,1.147,1.317c0,0.803-0.616,1.389-1.841,1.389
					c-0.56,0-1.056-0.131-1.379-0.307L612.835,69.724z"/>
				<path fill="#FFFFFF" d="M620.846,68.692c0,1.563-1.104,2.279-2.252,2.279c-1.248,0-2.208-0.82-2.208-2.199
					c0-1.388,0.907-2.271,2.286-2.271C619.973,66.503,620.846,67.402,620.846,68.692z M617.756,68.737
					c0,0.732,0.307,1.283,0.873,1.283c0.523,0,0.847-0.517,0.847-1.293c0-0.627-0.245-1.273-0.847-1.273
					C618,67.454,617.756,68.109,617.756,68.737z"/>
				<path fill="#FFFFFF" d="M624.807,64.993v5.881h-1.322v-5.881H624.807z"/>
				<path fill="#FFFFFF" d="M625.94,67.97c0-0.533-0.02-0.978-0.035-1.362h1.149l0.063,0.594h0.022
					c0.177-0.279,0.604-0.689,1.317-0.689c0.873,0,1.526,0.585,1.526,1.841v2.521h-1.326v-2.364c0-0.549-0.191-0.925-0.672-0.925
					c-0.367,0-0.584,0.253-0.685,0.498c-0.03,0.087-0.043,0.209-0.043,0.331v2.46h-1.323L625.94,67.97L625.94,67.97z"/>
				<path fill="#FFFFFF" d="M632.485,65.456v1.151h0.948v0.978h-0.948v1.545c0,0.514,0.131,0.75,0.521,0.75
					c0.187,0,0.271-0.008,0.396-0.035l0.01,1.004c-0.166,0.062-0.488,0.113-0.855,0.113c-0.428,0-0.783-0.148-1.003-0.367
					c-0.245-0.252-0.364-0.662-0.364-1.266v-1.744h-0.565v-0.978h0.565v-0.794L632.485,65.456z"/>
				<path fill="#FFFFFF" d="M635.181,69.165c0.035,0.549,0.585,0.811,1.205,0.811c0.453,0,0.82-0.061,1.181-0.184l0.176,0.9
					c-0.438,0.182-0.97,0.27-1.545,0.27c-1.449,0-2.277-0.838-2.277-2.173c0-1.082,0.672-2.277,2.154-2.277
					c1.379,0,1.9,1.073,1.9,2.129c0,0.228-0.025,0.426-0.045,0.523L635.181,69.165L635.181,69.165z M636.743,68.258
					c0-0.323-0.144-0.864-0.752-0.864c-0.561,0-0.785,0.515-0.819,0.864H636.743z"/>
				<path fill="#FFFFFF" d="M638.768,68.013c0-0.628-0.009-1.038-0.031-1.405h1.135l0.052,0.786h0.034
					c0.22-0.629,0.734-0.891,1.152-0.891c0.119,0,0.184,0.009,0.276,0.026v1.248c-0.104-0.018-0.209-0.035-0.354-0.035
					c-0.488,0-0.82,0.262-0.908,0.672c-0.021,0.088-0.024,0.192-0.024,0.297v2.163h-1.327L638.768,68.013L638.768,68.013z"/>
				<path fill="#FFFFFF" d="M642.083,67.97c0-0.533-0.018-0.978-0.034-1.362h1.151l0.061,0.594h0.027
					c0.174-0.279,0.602-0.689,1.313-0.689c0.873,0,1.526,0.585,1.526,1.841v2.521h-1.325v-2.364c0-0.549-0.19-0.925-0.673-0.925
					c-0.366,0-0.584,0.253-0.681,0.498c-0.035,0.087-0.043,0.209-0.043,0.331v2.46h-1.328V67.97H642.083z"/>
				<path fill="#FFFFFF" d="M651.411,68.692c0,1.563-1.108,2.279-2.252,2.279c-1.248,0-2.207-0.82-2.207-2.199
					c0-1.388,0.906-2.271,2.285-2.271C650.538,66.503,651.411,67.402,651.411,68.692z M648.323,68.737
					c0,0.732,0.306,1.283,0.871,1.283c0.521,0,0.848-0.517,0.848-1.293c0-0.627-0.244-1.273-0.848-1.273
					C648.565,67.454,648.323,68.109,648.323,68.737z"/>
			</g>
			<g>
				<g>
					<path fill="#A7A6A7" d="M596.214,64.266c0,0.552-0.407,0.998-1.078,0.998c-0.631,0-1.037-0.446-1.037-0.998
						c0-0.565,0.421-0.998,1.063-0.998C595.806,63.268,596.201,63.7,596.214,64.266z M594.15,72.476v-6.423h1.998v6.423H594.15z"/>
				</g>
			</g>
		</g>
		<g>
			<path d="M228.754,88.354c0.637-0.104,1.586-0.182,2.639-0.182c1.3,0,2.21,0.195,2.834,0.689c0.52,0.416,0.806,1.027,0.806,1.833
				c0,1.118-0.793,1.885-1.547,2.158v0.039c0.611,0.247,0.949,0.832,1.17,1.638c0.273,0.988,0.546,2.132,0.715,2.47h-2.028
				c-0.143-0.247-0.351-0.962-0.611-2.041c-0.234-1.092-0.611-1.391-1.417-1.404h-0.598V97h-1.963V88.354z M230.717,92.125h0.78
				c0.988,0,1.573-0.494,1.573-1.261c0-0.806-0.546-1.209-1.456-1.222c-0.481,0-0.754,0.039-0.897,0.065V92.125z"/>
			<path d="M237.919,94.452c0.065,0.819,0.871,1.209,1.794,1.209c0.676,0,1.222-0.091,1.755-0.26l0.26,1.339
				c-0.65,0.26-1.443,0.39-2.301,0.39c-2.158,0-3.393-1.248-3.393-3.237c0-1.612,1.001-3.394,3.211-3.394
				c2.054,0,2.834,1.599,2.834,3.172c0,0.338-0.039,0.637-0.065,0.78H237.919z M240.246,93.1c0-0.481-0.208-1.287-1.118-1.287
				c-0.832,0-1.17,0.754-1.222,1.287H240.246z"/>
			<path d="M248.033,96.844c-0.351,0.156-1.014,0.286-1.768,0.286c-2.054,0-3.367-1.248-3.367-3.25c0-1.859,1.274-3.38,3.64-3.38
				c0.52,0,1.092,0.091,1.508,0.247l-0.312,1.469c-0.234-0.104-0.585-0.195-1.105-0.195c-1.04,0-1.716,0.741-1.703,1.781
				c0,1.17,0.78,1.781,1.742,1.781c0.468,0,0.832-0.078,1.131-0.195L248.033,96.844z"/>
			<path d="M255.118,94.959c0,0.832,0.026,1.508,0.052,2.041h-1.716l-0.091-0.897h-0.039c-0.247,0.39-0.845,1.04-1.989,1.04
				c-1.287,0-2.236-0.806-2.236-2.769v-3.731h1.989v3.419c0,0.923,0.299,1.482,0.988,1.482c0.546,0,0.858-0.377,0.988-0.689
				c0.052-0.117,0.065-0.273,0.065-0.429v-3.783h1.989V94.959z"/>
			<path d="M256.704,92.736c0-0.936-0.026-1.547-0.052-2.093h1.703l0.065,1.17h0.052c0.325-0.923,1.105-1.313,1.716-1.313
				c0.182,0,0.273,0,0.416,0.026v1.859c-0.143-0.026-0.312-0.052-0.533-0.052c-0.728,0-1.222,0.39-1.352,1.001
				c-0.026,0.13-0.039,0.286-0.039,0.442V97h-1.976V92.736z"/>
			<path d="M261.63,95.271c0.364,0.221,1.118,0.481,1.703,0.481c0.598,0,0.845-0.208,0.845-0.533c0-0.325-0.195-0.481-0.936-0.728
				c-1.313-0.442-1.82-1.157-1.807-1.911c0-1.183,1.014-2.08,2.587-2.08c0.741,0,1.404,0.169,1.794,0.364l-0.351,1.365
				c-0.286-0.156-0.832-0.364-1.378-0.364c-0.481,0-0.754,0.195-0.754,0.52c0,0.299,0.247,0.455,1.027,0.728
				c1.209,0.416,1.716,1.027,1.729,1.963c0,1.183-0.936,2.054-2.756,2.054c-0.832,0-1.573-0.182-2.054-0.442L261.63,95.271z"/>
			<path d="M273.564,93.75c0,2.327-1.651,3.393-3.354,3.393c-1.859,0-3.289-1.222-3.289-3.276c0-2.054,1.352-3.367,3.393-3.367
				C272.264,90.5,273.564,91.839,273.564,93.75z M268.962,93.815c0,1.092,0.455,1.911,1.3,1.911c0.767,0,1.261-0.767,1.261-1.911
				c0-0.949-0.364-1.911-1.261-1.911C269.313,91.904,268.962,92.879,268.962,93.815z"/>
			<path d="M274.773,95.271c0.364,0.221,1.118,0.481,1.703,0.481c0.598,0,0.845-0.208,0.845-0.533c0-0.325-0.195-0.481-0.936-0.728
				c-1.313-0.442-1.82-1.157-1.807-1.911c0-1.183,1.014-2.08,2.587-2.08c0.741,0,1.404,0.169,1.794,0.364l-0.351,1.365
				c-0.286-0.156-0.832-0.364-1.378-0.364c-0.481,0-0.754,0.195-0.754,0.52c0,0.299,0.247,0.455,1.027,0.728
				c1.209,0.416,1.716,1.027,1.729,1.963c0,1.183-0.936,2.054-2.756,2.054c-0.832,0-1.573-0.182-2.054-0.442L274.773,95.271z"/>
			<path d="M285.108,88.238v3.367h3.263v-3.367h1.976V97h-1.976v-3.666h-3.263V97h-1.989v-8.762H285.108z"/>
			<path d="M298.004,94.959c0,0.832,0.026,1.508,0.052,2.041h-1.716l-0.091-0.897h-0.039c-0.247,0.39-0.845,1.04-1.989,1.04
				c-1.287,0-2.236-0.806-2.236-2.769v-3.731h1.989v3.419c0,0.923,0.299,1.482,0.988,1.482c0.546,0,0.858-0.377,0.988-0.689
				c0.052-0.117,0.065-0.273,0.065-0.429v-3.783h1.989V94.959z"/>
			<path d="M299.59,92.671c0-0.793-0.026-1.469-0.052-2.028h1.664l0.091,0.858h0.039c0.273-0.403,0.832-1.001,1.924-1.001
				c0.819,0,1.469,0.416,1.742,1.079h0.026c0.234-0.325,0.52-0.585,0.819-0.767c0.351-0.208,0.741-0.313,1.209-0.313
				c1.222,0,2.145,0.858,2.145,2.756V97h-1.924v-3.458c0-0.923-0.299-1.456-0.936-1.456c-0.455,0-0.78,0.312-0.91,0.689
				c-0.052,0.143-0.078,0.351-0.078,0.507V97h-1.924v-3.562c0-0.806-0.286-1.352-0.91-1.352c-0.507,0-0.806,0.39-0.923,0.715
				c-0.065,0.156-0.078,0.338-0.078,0.494V97h-1.924V92.671z"/>
			<path d="M314.384,97l-0.117-0.637h-0.039c-0.416,0.507-1.066,0.78-1.82,0.78c-1.287,0-2.054-0.936-2.054-1.95
				c0-1.651,1.482-2.444,3.731-2.431v-0.091c0-0.338-0.182-0.819-1.157-0.819c-0.65,0-1.339,0.221-1.755,0.481l-0.364-1.274
				c0.442-0.247,1.313-0.559,2.47-0.559c2.119,0,2.795,1.248,2.795,2.743v2.21c0,0.611,0.026,1.196,0.091,1.547H314.384z
				 M314.15,93.997c-1.04-0.013-1.846,0.234-1.846,1.001c0,0.507,0.338,0.754,0.78,0.754c0.494,0,0.897-0.325,1.027-0.728
				c0.026-0.104,0.039-0.221,0.039-0.338V93.997z"/>
			<path d="M317.634,92.671c0-0.793-0.026-1.469-0.052-2.028h1.716l0.091,0.871h0.039c0.26-0.403,0.91-1.014,1.963-1.014
				c1.3,0,2.275,0.858,2.275,2.73V97h-1.976v-3.523c0-0.819-0.286-1.378-1.001-1.378c-0.546,0-0.871,0.377-1.001,0.741
				c-0.052,0.117-0.078,0.312-0.078,0.494V97h-1.976V92.671z"/>
			<path d="M331.531,93.75c0,2.327-1.651,3.393-3.354,3.393c-1.859,0-3.289-1.222-3.289-3.276c0-2.054,1.352-3.367,3.393-3.367
				C330.231,90.5,331.531,91.839,331.531,93.75z M326.929,93.815c0,1.092,0.455,1.911,1.3,1.911c0.767,0,1.261-0.767,1.261-1.911
				c0-0.949-0.364-1.911-1.261-1.911C327.28,91.904,326.929,92.879,326.929,93.815z"/>
			<path d="M332.74,95.271c0.364,0.221,1.118,0.481,1.703,0.481c0.598,0,0.845-0.208,0.845-0.533c0-0.325-0.195-0.481-0.936-0.728
				c-1.313-0.442-1.82-1.157-1.807-1.911c0-1.183,1.014-2.08,2.587-2.08c0.741,0,1.404,0.169,1.794,0.364l-0.351,1.365
				c-0.286-0.156-0.832-0.364-1.378-0.364c-0.481,0-0.754,0.195-0.754,0.52c0,0.299,0.247,0.455,1.027,0.728
				c1.209,0.416,1.716,1.027,1.729,1.963c0,1.183-0.936,2.054-2.756,2.054c-0.832,0-1.573-0.182-2.054-0.442L332.74,95.271z"/>
		</g>
	</g>
	<g>
		<path d="M298.389,937.35v-6.313h-2.357v-0.845h5.674v0.845h-2.368v6.313H298.389z"/>
		<path d="M301.128,934.757c0-0.96,0.267-1.672,0.801-2.134c0.446-0.384,0.99-0.576,1.631-0.576c0.714,0,1.296,0.233,1.748,0.701
			c0.453,0.467,0.68,1.112,0.68,1.936c0,0.667-0.101,1.192-0.3,1.574c-0.2,0.383-0.492,0.681-0.875,0.895
			c-0.382,0.212-0.8,0.314-1.252,0.314c-0.726,0-1.313-0.229-1.76-0.697C301.354,936.303,301.128,935.633,301.128,934.757z
			 M302.031,934.757c0,0.664,0.145,1.161,0.435,1.491c0.29,0.331,0.654,0.496,1.094,0.496c0.437,0,0.8-0.166,1.09-0.498
			s0.435-0.838,0.435-1.521c0-0.642-0.146-1.127-0.438-1.456s-0.652-0.494-1.086-0.494c-0.438,0-0.804,0.164-1.094,0.49
			C302.177,933.596,302.031,934.093,302.031,934.757z"/>
		<path d="M310.381,937.35v-0.651c-0.329,0.515-0.812,0.771-1.45,0.771c-0.414,0-0.793-0.114-1.14-0.342s-0.615-0.546-0.806-0.955
			c-0.19-0.408-0.286-0.878-0.286-1.408c0-0.518,0.086-0.984,0.259-1.407c0.172-0.423,0.431-0.743,0.776-0.971
			c0.345-0.225,0.73-0.337,1.156-0.337c0.313,0,0.592,0.066,0.835,0.197c0.244,0.133,0.443,0.304,0.597,0.516v-2.565h0.874v7.156
			L310.381,937.35L310.381,937.35z M307.604,934.762c0,0.664,0.14,1.16,0.42,1.489c0.279,0.329,0.609,0.493,0.99,0.493
			c0.385,0,0.71-0.157,0.979-0.471c0.269-0.314,0.403-0.796,0.403-1.438c0-0.71-0.138-1.229-0.41-1.563
			c-0.273-0.334-0.61-0.498-1.012-0.498c-0.391,0-0.717,0.156-0.979,0.479C307.734,933.573,307.604,934.075,307.604,934.762z"/>
		<path d="M312.251,934.757c0-0.96,0.267-1.672,0.801-2.134c0.446-0.384,0.99-0.576,1.631-0.576c0.714,0,1.296,0.233,1.748,0.701
			c0.453,0.467,0.68,1.112,0.68,1.936c0,0.667-0.101,1.192-0.301,1.574c-0.199,0.383-0.491,0.681-0.874,0.895
			c-0.382,0.212-0.8,0.314-1.252,0.314c-0.726,0-1.313-0.229-1.76-0.697C312.477,936.303,312.251,935.633,312.251,934.757z
			 M313.154,934.757c0,0.664,0.145,1.161,0.435,1.491c0.29,0.331,0.654,0.496,1.094,0.496c0.437,0,0.8-0.166,1.089-0.498
			c0.29-0.332,0.436-0.838,0.436-1.521c0-0.642-0.146-1.127-0.438-1.456c-0.292-0.329-0.652-0.494-1.086-0.494
			c-0.438,0-0.804,0.164-1.094,0.49C313.3,933.596,313.154,934.093,313.154,934.757z"/>
		<path d="M317.788,935.802l0.869-0.137c0.049,0.349,0.185,0.615,0.407,0.801c0.224,0.188,0.535,0.278,0.936,0.278
			c0.404,0,0.703-0.082,0.898-0.246c0.194-0.165,0.293-0.357,0.293-0.579c0-0.198-0.086-0.354-0.26-0.469
			c-0.121-0.078-0.42-0.178-0.897-0.298c-0.646-0.163-1.091-0.307-1.34-0.422c-0.249-0.119-0.438-0.283-0.566-0.494
			c-0.128-0.209-0.193-0.441-0.193-0.695c0-0.229,0.054-0.445,0.159-0.643c0.106-0.196,0.25-0.36,0.433-0.49
			c0.137-0.104,0.322-0.188,0.559-0.256c0.236-0.07,0.489-0.105,0.759-0.105c0.407,0,0.765,0.062,1.072,0.177
			c0.308,0.116,0.535,0.274,0.681,0.479c0.146,0.199,0.248,0.468,0.304,0.803l-0.859,0.117c-0.039-0.267-0.152-0.476-0.339-0.625
			c-0.188-0.148-0.452-0.225-0.793-0.225c-0.404,0-0.692,0.063-0.864,0.197c-0.172,0.137-0.259,0.29-0.259,0.472
			c0,0.111,0.036,0.217,0.106,0.308c0.072,0.095,0.185,0.173,0.338,0.234c0.088,0.029,0.347,0.104,0.775,0.225
			c0.622,0.166,1.056,0.302,1.301,0.408c0.246,0.104,0.438,0.259,0.579,0.461c0.142,0.202,0.21,0.452,0.21,0.752
			c0,0.293-0.085,0.568-0.256,0.828c-0.171,0.258-0.417,0.459-0.74,0.6c-0.321,0.146-0.687,0.213-1.094,0.213
			c-0.674,0-1.188-0.14-1.541-0.42C318.112,936.771,317.886,936.352,317.788,935.802z"/>
		<path d="M325.898,937.35v-7.155h0.879v7.155H325.898z"/>
		<path d="M327.813,934.757c0-0.96,0.268-1.672,0.802-2.134c0.445-0.384,0.989-0.576,1.631-0.576c0.713,0,1.295,0.233,1.748,0.701
			c0.453,0.467,0.679,1.112,0.679,1.936c0,0.667-0.1,1.192-0.3,1.574c-0.2,0.383-0.492,0.681-0.874,0.895
			c-0.382,0.212-0.8,0.314-1.252,0.314c-0.727,0-1.313-0.229-1.76-0.697C328.039,936.303,327.813,935.633,327.813,934.757z
			 M328.716,934.757c0,0.664,0.146,1.161,0.436,1.491c0.29,0.331,0.653,0.496,1.094,0.496c0.436,0,0.799-0.166,1.089-0.498
			s0.435-0.838,0.435-1.521c0-0.642-0.146-1.127-0.437-1.456c-0.292-0.329-0.653-0.494-1.086-0.494c-0.439,0-0.804,0.164-1.094,0.49
			C328.862,933.596,328.716,934.093,328.716,934.757z"/>
		<path d="M333.35,935.802l0.869-0.137c0.049,0.349,0.186,0.615,0.408,0.801c0.223,0.188,0.535,0.278,0.936,0.278
			c0.403,0,0.702-0.082,0.897-0.246c0.195-0.165,0.293-0.357,0.293-0.579c0-0.198-0.086-0.354-0.259-0.469
			c-0.121-0.078-0.42-0.178-0.898-0.298c-0.645-0.163-1.091-0.307-1.34-0.422c-0.249-0.119-0.438-0.283-0.566-0.494
			c-0.127-0.209-0.192-0.441-0.192-0.695c0-0.229,0.053-0.445,0.159-0.643c0.104-0.196,0.25-0.36,0.432-0.49
			c0.137-0.104,0.323-0.188,0.559-0.256c0.236-0.07,0.489-0.105,0.76-0.105c0.406,0,0.764,0.062,1.071,0.177
			c0.309,0.116,0.535,0.274,0.682,0.479c0.146,0.199,0.248,0.468,0.303,0.803l-0.859,0.117c-0.038-0.267-0.151-0.476-0.339-0.625
			c-0.187-0.148-0.451-0.225-0.793-0.225c-0.403,0-0.691,0.063-0.863,0.197c-0.173,0.137-0.26,0.29-0.26,0.472
			c0,0.111,0.036,0.217,0.107,0.308c0.072,0.095,0.184,0.173,0.337,0.234c0.088,0.029,0.347,0.104,0.776,0.225
			c0.621,0.166,1.056,0.302,1.301,0.408c0.246,0.104,0.438,0.259,0.579,0.461c0.141,0.202,0.21,0.452,0.21,0.752
			c0,0.293-0.085,0.568-0.256,0.828c-0.172,0.258-0.417,0.459-0.74,0.6c-0.322,0.146-0.688,0.213-1.094,0.213
			c-0.675,0-1.188-0.14-1.541-0.42C333.674,936.771,333.447,936.352,333.35,935.802z"/>
		<path d="M344.844,937.35v-0.651c-0.329,0.515-0.812,0.771-1.45,0.771c-0.413,0-0.793-0.114-1.14-0.342s-0.615-0.546-0.806-0.955
			c-0.19-0.408-0.286-0.878-0.286-1.408c0-0.518,0.086-0.984,0.259-1.407c0.172-0.423,0.431-0.743,0.776-0.971
			c0.345-0.225,0.73-0.337,1.156-0.337c0.313,0,0.592,0.066,0.836,0.197c0.243,0.133,0.442,0.304,0.596,0.516v-2.565h0.874v7.156
			L344.844,937.35L344.844,937.35z M342.065,934.762c0,0.664,0.14,1.16,0.42,1.489c0.279,0.329,0.609,0.493,0.99,0.493
			c0.385,0,0.71-0.157,0.979-0.471c0.269-0.314,0.403-0.796,0.403-1.438c0-0.71-0.138-1.229-0.41-1.563
			c-0.273-0.333-0.61-0.498-1.011-0.498c-0.392,0-0.718,0.156-0.979,0.479C342.196,933.573,342.065,934.075,342.065,934.762z"/>
		<path d="M350.591,935.68l0.908,0.112c-0.144,0.53-0.409,0.942-0.796,1.235s-0.882,0.438-1.484,0.438
			c-0.758,0-1.359-0.23-1.804-0.701c-0.444-0.467-0.667-1.122-0.667-1.965c0-0.872,0.225-1.55,0.674-2.031
			c0.449-0.479,1.032-0.723,1.748-0.723c0.693,0,1.26,0.236,1.699,0.708c0.438,0.472,0.659,1.136,0.659,1.992
			c0,0.052-0.001,0.13-0.005,0.232h-3.867c0.033,0.568,0.193,1.008,0.482,1.311s0.651,0.454,1.084,0.454
			c0.322,0,0.598-0.085,0.825-0.254C350.276,936.319,350.458,936.051,350.591,935.68z M347.705,934.259h2.896
			c-0.038-0.437-0.149-0.764-0.332-0.979c-0.279-0.339-0.643-0.511-1.089-0.511c-0.403,0-0.742,0.138-1.018,0.405
			C347.887,933.445,347.734,933.807,347.705,934.259z"/>
		<path d="M352.593,937.35v-5.186h0.791v0.786c0.202-0.368,0.388-0.61,0.56-0.729c0.171-0.119,0.358-0.176,0.563-0.176
			c0.296,0,0.597,0.095,0.903,0.283l-0.303,0.813c-0.216-0.127-0.431-0.188-0.646-0.188c-0.192,0-0.365,0.058-0.518,0.174
			c-0.153,0.115-0.263,0.275-0.327,0.48c-0.099,0.313-0.146,0.651-0.146,1.022v2.715h-0.878V937.35z"/>
		<path d="M359.482,935.68l0.907,0.112c-0.143,0.53-0.409,0.942-0.796,1.235s-0.882,0.438-1.483,0.438
			c-0.759,0-1.36-0.23-1.805-0.701c-0.443-0.467-0.667-1.122-0.667-1.965c0-0.872,0.226-1.55,0.674-2.031
			c0.449-0.479,1.032-0.723,1.748-0.723c0.693,0,1.261,0.236,1.699,0.708c0.439,0.472,0.659,1.136,0.659,1.992
			c0,0.052-0.001,0.13-0.005,0.232h-3.867c0.033,0.568,0.194,1.008,0.483,1.311s0.65,0.454,1.084,0.454
			c0.321,0,0.597-0.085,0.825-0.254C359.167,936.319,359.349,936.051,359.482,935.68z M356.597,934.259h2.896
			c-0.039-0.437-0.15-0.764-0.332-0.979c-0.28-0.339-0.644-0.511-1.089-0.511c-0.404,0-0.743,0.138-1.021,0.405
			C356.779,933.445,356.626,933.807,356.597,934.259z"/>
		<path d="M364.878,935.45l0.864,0.111c-0.094,0.597-0.336,1.063-0.726,1.396c-0.389,0.338-0.866,0.506-1.433,0.506
			c-0.709,0-1.28-0.229-1.711-0.693c-0.431-0.467-0.647-1.131-0.647-1.994c0-0.563,0.094-1.053,0.278-1.473
			c0.186-0.42,0.468-0.731,0.847-0.942c0.38-0.209,0.792-0.314,1.238-0.314c0.563,0,1.024,0.146,1.382,0.428
			c0.358,0.284,0.588,0.688,0.688,1.214l-0.854,0.134c-0.082-0.352-0.226-0.61-0.432-0.786s-0.457-0.267-0.75-0.267
			c-0.443,0-0.802,0.158-1.079,0.479c-0.277,0.314-0.415,0.819-0.415,1.506c0,0.696,0.133,1.203,0.4,1.521
			c0.267,0.314,0.614,0.475,1.045,0.475c0.345,0,0.633-0.105,0.863-0.317C364.669,936.221,364.816,935.89,364.878,935.45z"/>
		<path d="M366.494,937.35v-7.155h0.879v2.565c0.41-0.476,0.928-0.713,1.553-0.713c0.385,0,0.719,0.076,1.001,0.229
			c0.283,0.15,0.485,0.359,0.608,0.629c0.121,0.267,0.183,0.651,0.183,1.161v3.284h-0.879v-3.284c0-0.438-0.095-0.761-0.286-0.961
			c-0.188-0.197-0.459-0.301-0.808-0.301c-0.261,0-0.505,0.067-0.735,0.202c-0.229,0.136-0.393,0.318-0.49,0.55
			c-0.097,0.232-0.146,0.552-0.146,0.957v2.837H366.494L366.494,937.35z"/>
		<path d="M371.729,934.757c0-0.96,0.271-1.672,0.804-2.134c0.442-0.384,0.987-0.576,1.631-0.576c0.713,0,1.295,0.233,1.748,0.701
			c0.451,0.467,0.679,1.112,0.679,1.936c0,0.667-0.103,1.192-0.3,1.574c-0.201,0.383-0.492,0.681-0.875,0.895
			c-0.382,0.212-0.799,0.314-1.252,0.314c-0.729,0-1.313-0.229-1.762-0.697C371.952,936.303,371.729,935.633,371.729,934.757z
			 M372.632,934.757c0,0.664,0.146,1.161,0.436,1.491c0.288,0.331,0.653,0.496,1.096,0.496c0.438,0,0.799-0.166,1.089-0.498
			s0.438-0.838,0.438-1.521c0-0.642-0.146-1.127-0.438-1.456c-0.291-0.329-0.651-0.494-1.086-0.494c-0.438,0-0.806,0.164-1.095,0.49
			C372.777,933.596,372.632,934.093,372.632,934.757z"/>
		<path d="M377.266,935.802l0.869-0.137c0.049,0.349,0.187,0.615,0.408,0.801c0.223,0.188,0.534,0.278,0.936,0.278
			c0.402,0,0.703-0.082,0.897-0.246c0.194-0.165,0.293-0.357,0.293-0.579c0-0.198-0.087-0.354-0.259-0.469
			c-0.121-0.078-0.42-0.178-0.898-0.298c-0.645-0.163-1.092-0.307-1.34-0.422c-0.25-0.119-0.438-0.283-0.566-0.494
			c-0.129-0.209-0.19-0.441-0.19-0.695c0-0.229,0.053-0.445,0.156-0.643c0.105-0.196,0.25-0.36,0.435-0.49
			c0.138-0.104,0.323-0.188,0.563-0.256c0.232-0.07,0.485-0.105,0.759-0.105c0.407,0,0.765,0.062,1.071,0.177
			c0.309,0.116,0.532,0.274,0.682,0.479c0.146,0.199,0.248,0.468,0.303,0.803l-0.858,0.117c-0.039-0.267-0.15-0.476-0.341-0.625
			c-0.187-0.148-0.45-0.225-0.793-0.225c-0.403,0-0.689,0.063-0.862,0.197c-0.175,0.137-0.261,0.29-0.261,0.472
			c0,0.111,0.035,0.217,0.107,0.308c0.072,0.095,0.184,0.173,0.337,0.234c0.088,0.029,0.347,0.104,0.776,0.225
			c0.621,0.166,1.056,0.302,1.301,0.408c0.246,0.104,0.438,0.259,0.579,0.461c0.14,0.202,0.21,0.452,0.21,0.752
			c0,0.293-0.086,0.568-0.256,0.828c-0.172,0.258-0.418,0.459-0.74,0.6c-0.322,0.146-0.688,0.213-1.094,0.213
			c-0.674,0-1.188-0.14-1.541-0.42C377.589,936.767,377.363,936.352,377.266,935.802z"/>
		<path d="M385.386,937.35v-5.186h0.791v0.786c0.202-0.368,0.388-0.61,0.561-0.729c0.172-0.114,0.357-0.176,0.563-0.176
			c0.296,0,0.597,0.095,0.903,0.283l-0.303,0.813c-0.216-0.127-0.433-0.188-0.646-0.188c-0.189,0-0.363,0.058-0.52,0.174
			c-0.15,0.115-0.263,0.275-0.325,0.48c-0.1,0.313-0.146,0.651-0.146,1.022v2.715h-0.878L385.386,937.35L385.386,937.35z"/>
		<path d="M392.275,935.68l0.907,0.112c-0.145,0.53-0.407,0.942-0.798,1.235c-0.388,0.293-0.882,0.438-1.482,0.438
			c-0.759,0-1.359-0.23-1.804-0.701c-0.444-0.467-0.668-1.122-0.668-1.965c0-0.872,0.227-1.55,0.675-2.031
			c0.447-0.479,1.031-0.723,1.747-0.723c0.692,0,1.261,0.236,1.698,0.708c0.439,0.472,0.659,1.136,0.659,1.992
			c0,0.052-0.002,0.13-0.005,0.232h-3.867c0.032,0.568,0.194,1.008,0.483,1.311c0.286,0.303,0.647,0.454,1.084,0.454
			c0.319,0,0.598-0.085,0.823-0.254C391.959,936.32,392.143,936.051,392.275,935.68z M389.391,934.259h2.896
			c-0.039-0.437-0.15-0.764-0.332-0.979c-0.279-0.339-0.646-0.511-1.089-0.511c-0.403,0-0.743,0.138-1.021,0.405
			C389.571,933.445,389.419,933.807,389.391,934.259z"/>
		<path d="M393.936,935.802l0.869-0.137c0.049,0.349,0.188,0.615,0.408,0.801c0.223,0.188,0.534,0.278,0.938,0.278
			c0.4,0,0.7-0.082,0.896-0.246c0.195-0.165,0.293-0.357,0.293-0.579c0-0.198-0.087-0.354-0.259-0.469
			c-0.121-0.078-0.42-0.178-0.898-0.298c-0.645-0.163-1.092-0.307-1.34-0.422c-0.25-0.119-0.438-0.283-0.565-0.494
			c-0.13-0.209-0.191-0.441-0.191-0.695c0-0.229,0.053-0.445,0.158-0.643c0.104-0.196,0.25-0.36,0.433-0.49
			c0.139-0.104,0.323-0.188,0.563-0.256c0.232-0.07,0.487-0.105,0.759-0.105c0.407,0,0.765,0.062,1.071,0.177
			c0.309,0.116,0.532,0.274,0.682,0.479c0.146,0.199,0.248,0.468,0.303,0.803l-0.856,0.117c-0.039-0.267-0.152-0.476-0.343-0.625
			c-0.187-0.148-0.448-0.225-0.793-0.225c-0.402,0-0.688,0.063-0.861,0.197c-0.175,0.137-0.262,0.29-0.262,0.472
			c0,0.111,0.035,0.217,0.107,0.308c0.072,0.095,0.184,0.173,0.337,0.234c0.088,0.029,0.347,0.104,0.776,0.225
			c0.621,0.166,1.056,0.302,1.301,0.408c0.246,0.104,0.438,0.259,0.579,0.461c0.14,0.202,0.21,0.452,0.21,0.752
			c0,0.293-0.086,0.568-0.256,0.828c-0.172,0.258-0.418,0.459-0.74,0.6c-0.322,0.146-0.688,0.213-1.094,0.213
			c-0.674,0-1.188-0.14-1.541-0.42C394.259,936.767,394.033,936.352,393.936,935.802z"/>
		<path d="M402.837,935.68l0.908,0.112c-0.146,0.53-0.409,0.942-0.796,1.235s-0.883,0.438-1.484,0.438
			c-0.758,0-1.359-0.23-1.805-0.701c-0.443-0.467-0.666-1.122-0.666-1.965c0-0.872,0.225-1.55,0.674-2.031
			c0.449-0.479,1.031-0.723,1.748-0.723c0.693,0,1.26,0.236,1.699,0.708c0.438,0.472,0.659,1.136,0.659,1.992
			c0,0.052-0.001,0.13-0.005,0.232h-3.867c0.03,0.568,0.19,1.008,0.48,1.311s0.651,0.454,1.084,0.454c0.322,0,0.6-0.085,0.825-0.254
			C402.521,936.32,402.703,936.051,402.837,935.68z M399.951,934.259h2.896c-0.039-0.437-0.146-0.764-0.332-0.979
			c-0.277-0.339-0.644-0.511-1.089-0.511c-0.404,0-0.743,0.138-1.018,0.405C400.133,933.445,399.98,933.807,399.951,934.259z"/>
		<path d="M404.839,937.35v-5.186h0.791v0.786c0.202-0.368,0.388-0.61,0.56-0.729c0.173-0.114,0.358-0.176,0.563-0.176
			c0.296,0,0.597,0.095,0.903,0.283l-0.306,0.813c-0.215-0.127-0.43-0.188-0.645-0.188c-0.191,0-0.365,0.058-0.521,0.174
			c-0.149,0.115-0.262,0.275-0.324,0.48c-0.101,0.313-0.146,0.651-0.146,1.022v2.715h-0.878L404.839,937.35L404.839,937.35z"/>
		<path d="M409.619,937.35l-1.973-5.186h0.928l1.113,3.104c0.118,0.337,0.229,0.687,0.332,1.048
			c0.075-0.273,0.188-0.604,0.324-0.986l1.152-3.164h0.903l-1.966,5.186L409.619,937.35L409.619,937.35z"/>
		<path d="M416.563,936.71c-0.323,0.276-0.639,0.472-0.938,0.586c-0.302,0.114-0.625,0.171-0.97,0.171
			c-0.569,0-1.009-0.139-1.313-0.418c-0.307-0.274-0.459-0.634-0.459-1.063c0-0.256,0.061-0.486,0.174-0.695
			c0.115-0.211,0.27-0.379,0.453-0.506c0.188-0.127,0.398-0.226,0.633-0.288c0.175-0.046,0.437-0.09,0.781-0.132
			c0.709-0.085,1.232-0.188,1.567-0.306c0.003-0.118,0.005-0.194,0.005-0.229c0-0.358-0.083-0.61-0.249-0.757
			c-0.226-0.198-0.56-0.298-1.001-0.298c-0.414,0-0.719,0.069-0.916,0.218c-0.196,0.145-0.342,0.397-0.438,0.769l-0.856-0.117
			c0.078-0.365,0.206-0.663,0.386-0.892c0.18-0.226,0.438-0.4,0.776-0.521c0.339-0.122,0.729-0.186,1.177-0.186
			c0.442,0,0.803,0.052,1.079,0.156c0.273,0.104,0.479,0.233,0.607,0.393c0.134,0.158,0.224,0.357,0.273,0.602
			c0.029,0.146,0.044,0.42,0.044,0.811v1.172c0,0.817,0.021,1.334,0.056,1.55c0.038,0.22,0.111,0.428,0.226,0.623h-0.918
			C416.646,937.167,416.588,936.954,416.563,936.71z M416.489,934.747c-0.319,0.13-0.798,0.241-1.438,0.332
			c-0.358,0.052-0.613,0.109-0.767,0.176c-0.151,0.066-0.269,0.16-0.349,0.286c-0.079,0.125-0.12,0.264-0.12,0.417
			c0,0.234,0.089,0.43,0.266,0.586c0.178,0.156,0.438,0.234,0.779,0.234c0.338,0,0.64-0.074,0.9-0.225
			c0.267-0.146,0.458-0.352,0.581-0.605c0.096-0.198,0.145-0.491,0.145-0.879L416.489,934.747L416.489,934.747z"/>
		<path d="M422.104,937.35v-0.651c-0.326,0.515-0.812,0.771-1.447,0.771c-0.414,0-0.793-0.114-1.144-0.342
			c-0.346-0.229-0.612-0.546-0.805-0.955c-0.191-0.408-0.286-0.878-0.286-1.408c0-0.518,0.087-0.984,0.259-1.407
			c0.173-0.423,0.435-0.743,0.776-0.971c0.344-0.225,0.73-0.337,1.157-0.337c0.313,0,0.591,0.066,0.835,0.197
			c0.244,0.133,0.439,0.304,0.596,0.516v-2.565h0.874v7.156L422.104,937.35L422.104,937.35z M419.326,934.762
			c0,0.664,0.141,1.16,0.42,1.489s0.609,0.493,0.991,0.493c0.384,0,0.71-0.157,0.979-0.471c0.271-0.314,0.402-0.796,0.402-1.438
			c0-0.71-0.137-1.229-0.41-1.563s-0.61-0.498-1.011-0.498c-0.394,0-0.717,0.156-0.979,0.479
			C419.457,933.572,419.326,934.075,419.326,934.762z"/>
		<path d="M423.975,934.757c0-0.96,0.271-1.672,0.804-2.134c0.442-0.384,0.987-0.576,1.631-0.576c0.713,0,1.295,0.233,1.748,0.701
			c0.453,0.467,0.679,1.112,0.679,1.936c0,0.667-0.101,1.192-0.3,1.574c-0.201,0.383-0.492,0.681-0.875,0.895
			c-0.382,0.212-0.799,0.314-1.252,0.314c-0.729,0-1.313-0.229-1.763-0.697C424.198,936.303,423.975,935.633,423.975,934.757z
			 M424.878,934.757c0,0.664,0.146,1.161,0.435,1.491c0.289,0.331,0.654,0.496,1.097,0.496c0.436,0,0.799-0.166,1.089-0.498
			s0.435-0.838,0.435-1.521c0-0.642-0.146-1.127-0.438-1.456c-0.291-0.329-0.652-0.494-1.086-0.494c-0.439,0-0.808,0.164-1.097,0.49
			C425.024,933.596,424.878,934.093,424.878,934.757z"/>
		<path d="M429.512,935.802l0.869-0.137c0.049,0.349,0.188,0.615,0.408,0.801c0.223,0.188,0.534,0.278,0.935,0.278
			c0.403,0,0.703-0.082,0.898-0.246c0.195-0.165,0.293-0.357,0.293-0.579c0-0.198-0.087-0.354-0.259-0.469
			c-0.121-0.078-0.42-0.178-0.898-0.298c-0.645-0.163-1.092-0.307-1.34-0.422c-0.25-0.119-0.438-0.283-0.566-0.494
			c-0.129-0.209-0.19-0.441-0.19-0.695c0-0.229,0.053-0.445,0.158-0.643c0.104-0.196,0.25-0.36,0.433-0.49
			c0.137-0.104,0.323-0.188,0.56-0.256c0.235-0.07,0.488-0.105,0.762-0.105c0.404,0,0.765,0.062,1.068,0.177
			c0.312,0.116,0.535,0.274,0.685,0.479c0.146,0.199,0.248,0.468,0.303,0.803l-0.859,0.117c-0.039-0.267-0.149-0.476-0.34-0.625
			c-0.187-0.148-0.451-0.225-0.793-0.225c-0.402,0-0.688,0.063-0.863,0.197c-0.174,0.137-0.26,0.29-0.26,0.472
			c0,0.111,0.035,0.217,0.107,0.308c0.072,0.095,0.184,0.173,0.337,0.234c0.088,0.029,0.347,0.104,0.776,0.225
			c0.618,0.166,1.056,0.302,1.301,0.408c0.246,0.104,0.438,0.259,0.579,0.461c0.14,0.202,0.21,0.452,0.21,0.752
			c0,0.293-0.086,0.568-0.256,0.828c-0.175,0.258-0.418,0.459-0.74,0.6c-0.322,0.146-0.688,0.213-1.094,0.213
			c-0.677,0-1.188-0.14-1.541-0.42C429.835,936.767,429.609,936.352,429.512,935.802z"/>
	</g>
	<g>
		<path d="M352.669,57.207V47.185h4.259c1.071,0,1.85,0.09,2.334,0.27c0.485,0.18,0.874,0.5,1.166,0.96s0.438,0.987,0.438,1.579
			c0,0.752-0.222,1.373-0.663,1.863c-0.442,0.49-1.104,0.799-1.982,0.926c0.438,0.255,0.799,0.536,1.083,0.841
			s0.669,0.848,1.152,1.627l1.224,1.955h-2.42l-1.463-2.181c-0.52-0.779-0.875-1.271-1.066-1.473
			c-0.19-0.202-0.394-0.342-0.607-0.417c-0.214-0.075-0.554-0.113-1.02-0.113h-0.409v4.184L352.669,57.207L352.669,57.207z
			 M354.693,51.423h1.497c0.971,0,1.576-0.041,1.817-0.123s0.432-0.223,0.567-0.424s0.205-0.451,0.205-0.752
			c0-0.337-0.091-0.609-0.271-0.817s-0.434-0.338-0.762-0.393c-0.164-0.023-0.656-0.034-1.477-0.034h-1.579L354.693,51.423
			L354.693,51.423z"/>
		<path d="M362.773,57.207V47.185h7.43v1.695h-5.407v2.222h5.032v1.688h-5.032v2.728h5.599v1.688L362.773,57.207L362.773,57.207z"/>
		<path d="M372.111,57.207V47.185h3.246c1.229,0,2.032,0.05,2.405,0.15c0.572,0.15,1.056,0.478,1.441,0.981s0.58,1.154,0.58,1.952
			c0,0.615-0.111,1.132-0.334,1.552c-0.226,0.419-0.511,0.749-0.854,0.988c-0.344,0.239-0.69,0.397-1.049,0.475
			c-0.482,0.096-1.184,0.144-2.1,0.144h-1.318v3.78H372.111L372.111,57.207z M374.135,48.88v2.844h1.107
			c0.797,0,1.33-0.052,1.6-0.157c0.271-0.105,0.479-0.269,0.633-0.492c0.152-0.223,0.229-0.483,0.229-0.779
			c0-0.365-0.106-0.666-0.322-0.902c-0.214-0.237-0.482-0.385-0.813-0.444c-0.241-0.045-0.729-0.068-1.456-0.068h-0.979V48.88
			L374.135,48.88z"/>
		<path d="M381.039,52.257c0-1.021,0.152-1.877,0.457-2.57c0.229-0.51,0.539-0.968,0.934-1.374c0.396-0.406,0.826-0.707,1.295-0.902
			c0.625-0.264,1.348-0.396,2.16-0.396c1.478,0,2.658,0.458,3.545,1.374c0.888,0.916,1.33,2.19,1.33,3.821
			c0,1.618-0.438,2.884-1.319,3.797c-0.88,0.914-2.056,1.371-3.525,1.371c-1.49,0-2.675-0.455-3.557-1.364
			C381.479,55.104,381.039,53.853,381.039,52.257z M383.123,52.189c0,1.135,0.263,1.995,0.787,2.581
			c0.522,0.585,1.188,0.878,1.996,0.878c0.807,0,1.469-0.291,1.983-0.872c0.518-0.581,0.775-1.453,0.775-2.615
			c0-1.148-0.252-2.005-0.756-2.57c-0.504-0.565-1.174-0.848-2.008-0.848s-1.507,0.286-2.019,0.858
			C383.379,50.173,383.123,51.036,383.123,52.189z"/>
		<path d="M392.346,57.207V47.185h4.258c1.071,0,1.853,0.09,2.338,0.27c0.482,0.18,0.871,0.5,1.162,0.96
			c0.293,0.46,0.438,0.987,0.438,1.579c0,0.752-0.221,1.373-0.662,1.863c-0.442,0.49-1.104,0.799-1.979,0.926
			c0.438,0.255,0.799,0.536,1.083,0.841c0.281,0.305,0.669,0.848,1.148,1.627l1.228,1.955h-2.422l-1.464-2.181
			c-0.52-0.779-0.875-1.271-1.063-1.473c-0.191-0.202-0.396-0.342-0.609-0.417c-0.214-0.075-0.553-0.113-1.018-0.113h-0.41v4.184
			L392.346,57.207L392.346,57.207z M394.369,51.423h1.496c0.971,0,1.577-0.041,1.815-0.123c0.242-0.082,0.435-0.223,0.568-0.424
			s0.205-0.451,0.205-0.752c0-0.337-0.09-0.609-0.271-0.817c-0.181-0.208-0.435-0.338-0.763-0.393
			c-0.164-0.023-0.656-0.034-1.478-0.034h-1.577v2.543H394.369z"/>
		<path d="M404.705,57.207V48.88h-2.975v-1.695h7.965v1.695h-2.97v8.326L404.705,57.207L404.705,57.207z"/>
		<path d="M411,57.207V47.185h7.432v1.695h-5.405v2.222h5.028v1.688h-5.028v2.728h5.6v1.688L411,57.207L411,57.207z"/>
	</g>
</g>
<g id="Capa_1_1_">
	<g>
		<g>
			<path d="M706.519,557.607c0.179,0.34,0.354,1.057,0.354,1.956c0,2.093-1.32,3.652-3.764,3.652c-2.332,0-3.896-1.574-3.896-3.873
				c0-0.914,0.199-1.508,0.33-1.76l0.781,0.242c-0.176,0.352-0.311,0.869-0.311,1.481c0,1.738,1.111,2.896,3.062,2.896
				c1.826,0,2.979-1.045,2.979-2.838c0-0.597-0.12-1.188-0.309-1.572L706.519,557.607z"/>
			<path d="M702.965,550.293c2.541,0,3.906,1.551,3.906,3.443c0,1.969-1.529,3.332-3.773,3.332c-2.354,0-3.895-1.451-3.895-3.435
				C699.203,551.602,700.754,550.293,702.965,550.293z M703.075,556.057c1.595,0,3.015-0.854,3.015-2.375
				c0-1.52-1.396-2.377-3.081-2.377c-1.482,0-3.022,0.771-3.022,2.365S701.457,556.057,703.075,556.057z"/>
			<path d="M706.75,549.051h-7.416v-1.057l3.752-2.365c0.869-0.539,1.65-0.979,2.409-1.32l-0.011-0.03
				c-0.99,0.088-1.896,0.106-3.047,0.106h-3.104v-0.897h7.416v0.967l-3.764,2.354c-0.824,0.519-1.672,1.015-2.478,1.375l0.014,0.033
				c0.935-0.055,1.824-0.063,3.059-0.063h3.169L706.75,549.051L706.75,549.051z"/>
			<path d="M699.334,541.824v-3.994h0.804v3.024h2.464v-2.797h0.793v2.797h3.355v0.97H699.334z"/>
			<path d="M699.334,535.498h7.416v0.969h-7.416V535.498z"/>
			<path d="M699.444,533.826c-0.102-0.582-0.165-1.275-0.165-2.035c0-1.375,0.33-2.354,0.924-3.004
				c0.604-0.67,1.464-1.055,2.662-1.055c1.211,0,2.201,0.385,2.883,1.063c0.693,0.705,1.067,1.85,1.067,3.289
				c0,0.693-0.032,1.254-0.091,1.738L699.444,533.826L699.444,533.826z M706.002,532.869c0.032-0.242,0.043-0.594,0.043-0.967
				c0-2.062-1.144-3.158-3.146-3.158c-1.748-0.012-2.859,0.979-2.859,3.004c0,0.494,0.043,0.869,0.099,1.121H706.002z"/>
			<path d="M703.273,522.672v2.871h2.673v-3.211h0.804v4.18h-7.416v-4.016h0.804v3.047h2.346v-2.871H703.273z"/>
			<path d="M706.75,521.09h-7.416v-1.057l3.752-2.365c0.869-0.539,1.65-0.979,2.409-1.32l-0.011-0.03
				c-0.99,0.088-1.896,0.106-3.047,0.106h-3.104v-0.899h7.416v0.969l-3.764,2.354c-0.824,0.521-1.672,1.017-2.478,1.377l0.014,0.031
				c0.935-0.055,1.824-0.063,3.059-0.063h3.169L706.75,521.09L706.75,521.09z"/>
			<path d="M706.519,508.68c0.179,0.345,0.354,1.06,0.354,1.959c0,2.091-1.32,3.652-3.764,3.652c-2.332,0-3.896-1.572-3.896-3.873
				c0-0.912,0.199-1.506,0.33-1.76l0.781,0.242c-0.176,0.352-0.311,0.866-0.311,1.481c0,1.738,1.111,2.896,3.062,2.896
				c1.826,0,2.979-1.045,2.979-2.838c0-0.599-0.12-1.189-0.309-1.574L706.519,508.68z"/>
			<path d="M699.334,506.514h7.416v0.972h-7.416V506.514z"/>
			<path d="M704.417,503.643l2.333,0.771v0.99l-7.416-2.531v-1.146l7.416-2.526v1.021l-2.333,0.791V503.643z M703.669,501.201
				l-2.134,0.733c-0.484,0.166-0.924,0.275-1.354,0.388v0.021c0.433,0.109,0.894,0.222,1.345,0.373l2.146,0.729L703.669,501.201
				L703.669,501.201z"/>
			<path d="M699.334,498.121v-0.969h6.612v-3.168h0.804v4.137H699.334z"/>
			<path d="M703.625,486.253h0.66v4.839h-0.66V486.253z"/>
			<path d="M706.519,477.585c0.179,0.34,0.354,1.056,0.354,1.958c0,2.09-1.32,3.652-3.764,3.652c-2.332,0-3.896-1.573-3.896-3.872
				c0-0.914,0.199-1.508,0.33-1.762l0.781,0.24c-0.176,0.354-0.311,0.869-0.311,1.485c0,1.738,1.111,2.893,3.062,2.893
				c1.826,0,2.979-1.045,2.979-2.838c0-0.594-0.12-1.188-0.309-1.571L706.519,477.585z"/>
			<path d="M702.965,470.27c2.541,0,3.906,1.554,3.906,3.443c0,1.969-1.529,3.333-3.773,3.333c-2.354,0-3.895-1.452-3.895-3.433
				C699.203,471.578,700.754,470.27,702.965,470.27z M703.075,476.034c1.595,0,3.015-0.858,3.015-2.376
				c0-1.521-1.396-2.377-3.081-2.377c-1.482,0-3.022,0.771-3.022,2.362C699.983,475.242,701.457,476.034,703.075,476.034z"/>
			<path d="M699.422,469.027c-0.076-0.462-0.143-1.066-0.143-1.837c0-0.946,0.221-1.643,0.613-2.079
				c0.354-0.396,0.895-0.649,1.555-0.649c0.67,0,1.197,0.198,1.584,0.572c0.539,0.517,0.813,1.331,0.813,2.267
				c0,0.285-0.012,0.55-0.063,0.771h2.971v0.957L699.422,469.027L699.422,469.027z M702.998,468.07
				c0.055-0.209,0.077-0.476,0.077-0.792c0-1.155-0.572-1.859-1.573-1.859c-0.99,0-1.463,0.704-1.463,1.749
				c0,0.418,0.033,0.737,0.076,0.902H702.998z"/>
			<path d="M699.334,462.219h7.416v0.968h-7.416V462.219z"/>
			<path d="M704.417,459.348l2.333,0.771v0.99l-7.416-2.529v-1.146l7.416-2.528v1.021l-2.333,0.793V459.348z M703.669,456.905
				l-2.134,0.734c-0.484,0.164-0.924,0.275-1.354,0.388v0.021c0.433,0.11,0.894,0.221,1.345,0.375l2.146,0.729L703.669,456.905
				L703.669,456.905z"/>
			<path d="M706.519,446.313c0.179,0.342,0.354,1.058,0.354,1.96c0,2.09-1.32,3.649-3.764,3.649c-2.332,0-3.896-1.573-3.896-3.872
				c0-0.914,0.199-1.508,0.33-1.761l0.781,0.242c-0.176,0.353-0.311,0.869-0.311,1.482c0,1.738,1.111,2.896,3.062,2.896
				c1.826,0,2.979-1.045,2.979-2.838c0-0.597-0.12-1.188-0.309-1.573L706.519,446.313z"/>
			<path d="M702.965,438.997c2.541,0,3.906,1.552,3.906,3.443c0,1.97-1.529,3.333-3.773,3.333c-2.354,0-3.895-1.451-3.895-3.435
				C699.203,440.307,700.754,438.997,702.965,438.997z M703.075,444.762c1.595,0,3.015-0.854,3.015-2.377
				c0-1.518-1.396-2.376-3.081-2.376c-1.482,0-3.022,0.771-3.022,2.366C699.983,443.97,701.457,444.762,703.075,444.762z"/>
			<path d="M706.75,437.755h-7.416v-1.056l3.752-2.366c0.869-0.539,1.65-0.979,2.409-1.319l-0.011-0.03
				c-0.99,0.088-1.896,0.106-3.047,0.106h-3.104v-0.899h7.416v0.969l-3.764,2.354c-0.824,0.521-1.672,1.016-2.478,1.376l0.014,0.032
				c0.935-0.055,1.824-0.063,3.059-0.063h3.169L706.75,437.755L706.75,437.755z"/>
			<path d="M700.148,429.109v2.255h-0.814v-5.49h0.814v2.267h6.602v0.972L700.148,429.109L700.148,429.109z"/>
			<path d="M699.434,425.051c-0.088-0.481-0.151-1.188-0.151-1.838c0-1.021,0.197-1.694,0.604-2.146
				c0.33-0.362,0.836-0.583,1.419-0.583c0.971,0,1.617,0.614,1.883,1.387h0.031c0.198-0.563,0.729-0.902,1.497-1.078
				c1.033-0.242,1.748-0.418,2.035-0.572v0.99c-0.221,0.121-0.848,0.285-1.771,0.484c-1.021,0.219-1.406,0.627-1.439,1.496v0.898
				h3.213v0.958L699.434,425.051L699.434,425.051z M702.811,424.093v-0.979c0-1.022-0.561-1.672-1.405-1.672
				c-0.957,0-1.375,0.69-1.375,1.703c0,0.465,0.03,0.78,0.077,0.945L702.811,424.093L702.811,424.093z"/>
			<path d="M702.965,412.762c2.541,0,3.906,1.554,3.906,3.443c0,1.97-1.529,3.334-3.773,3.334c-2.354,0-3.895-1.452-3.895-3.433
				C699.203,414.071,700.754,412.762,702.965,412.762z M703.075,418.527c1.595,0,3.015-0.858,3.015-2.377
				c0-1.52-1.396-2.376-3.081-2.376c-1.482,0-3.022,0.771-3.022,2.363C699.984,417.733,701.457,418.527,703.075,418.527z"/>
			<path d="M699.334,411.531v-0.969h6.612v-3.17h0.804v4.139H699.334z"/>
			<path d="M704.417,405.129l2.333,0.771v0.988l-7.416-2.528v-1.146l7.416-2.53v1.023l-2.333,0.792V405.129z M703.669,402.688
				l-2.134,0.736c-0.484,0.165-0.924,0.275-1.354,0.385v0.022c0.433,0.11,0.894,0.22,1.345,0.374l2.146,0.727L703.669,402.688
				L703.669,402.688z"/>
			<path d="M699.444,399.597c-0.102-0.583-0.165-1.274-0.165-2.036c0-1.375,0.33-2.354,0.924-3.003
				c0.604-0.671,1.464-1.056,2.662-1.056c1.211,0,2.201,0.385,2.883,1.066c0.693,0.705,1.067,1.849,1.067,3.29
				c0,0.69-0.032,1.254-0.091,1.736L699.444,399.597L699.444,399.597z M706.002,398.639c0.032-0.239,0.043-0.594,0.043-0.967
				c0-2.059-1.144-3.158-3.146-3.158c-1.748-0.011-2.859,0.979-2.859,3.004c0,0.494,0.043,0.869,0.099,1.121H706.002z"/>
			<path d="M704.417,391.226l2.333,0.771v0.99l-7.416-2.531v-1.146l7.416-2.528v1.021l-2.333,0.792V391.226z M703.669,388.783
				l-2.134,0.734c-0.484,0.166-0.924,0.275-1.354,0.388v0.021c0.433,0.109,0.894,0.22,1.345,0.373l2.146,0.729L703.669,388.783
				L703.669,388.783z"/>
		</g>
		<g>
			<path d="M706.519,354.614c0.179,0.34,0.354,1.057,0.354,1.957c0,2.092-1.32,3.652-3.764,3.652c-2.332,0-3.896-1.572-3.896-3.873
				c0-0.912,0.199-1.508,0.33-1.76l0.781,0.242c-0.176,0.352-0.311,0.869-0.311,1.484c0,1.736,1.111,2.893,3.062,2.893
				c1.826,0,2.979-1.045,2.979-2.838c0-0.594-0.12-1.188-0.309-1.572L706.519,354.614z"/>
			<path d="M702.965,347.3c2.541,0,3.906,1.551,3.906,3.443c0,1.969-1.529,3.332-3.773,3.332c-2.354,0-3.895-1.451-3.895-3.434
				C699.203,348.608,700.754,347.3,702.965,347.3z M703.075,353.063c1.595,0,3.015-0.855,3.015-2.376
				c0-1.519-1.396-2.376-3.081-2.376c-1.482,0-3.022,0.771-3.022,2.365C699.986,352.27,701.457,353.063,703.075,353.063z"/>
			<path d="M706.75,346.058h-7.416v-1.057l3.752-2.365c0.869-0.539,1.65-0.979,2.409-1.318l-0.011-0.033
				c-0.99,0.088-1.896,0.107-3.047,0.107h-3.104v-0.899h7.416v0.968l-3.764,2.354c-0.824,0.517-1.672,1.013-2.478,1.376l0.014,0.03
				c0.935-0.055,1.824-0.063,3.059-0.063h3.169L706.75,346.058L706.75,346.058z"/>
			<path d="M699.334,338.83v-3.993h0.804v3.025h2.464v-2.795h0.793v2.795h3.355v0.968H699.334L699.334,338.83z"/>
			<path d="M699.334,332.505h7.416v0.969h-7.416V332.505z"/>
			<path d="M699.444,330.833c-0.102-0.583-0.165-1.275-0.165-2.035c0-1.375,0.33-2.354,0.924-3.004
				c0.604-0.67,1.464-1.056,2.662-1.056c1.211,0,2.201,0.386,2.883,1.064c0.693,0.704,1.067,1.85,1.067,3.289
				c0,0.693-0.032,1.254-0.091,1.738L699.444,330.833L699.444,330.833z M706.002,329.876c0.032-0.242,0.043-0.594,0.043-0.968
				c0-2.06-1.144-3.157-3.146-3.157c-1.748-0.012-2.859,0.979-2.859,3.003c0,0.495,0.043,0.869,0.099,1.122H706.002z"/>
			<path d="M703.273,319.679v2.871h2.673v-3.212h0.804v4.181h-7.416v-4.016h0.804v3.047h2.346v-2.871H703.273z"/>
			<path d="M706.75,318.096h-7.416v-1.056l3.752-2.366c0.869-0.539,1.65-0.979,2.409-1.32l-0.011-0.031
				c-0.99,0.088-1.896,0.108-3.047,0.108h-3.104v-0.9h7.416v0.968l-3.764,2.354c-0.824,0.519-1.672,1.014-2.478,1.375l0.014,0.033
				c0.935-0.055,1.824-0.063,3.059-0.063h3.169L706.75,318.096L706.75,318.096z"/>
			<path d="M706.519,305.687c0.179,0.341,0.354,1.056,0.354,1.958c0,2.092-1.32,3.652-3.764,3.652c-2.332,0-3.896-1.573-3.896-3.873
				c0-0.913,0.199-1.507,0.33-1.76l0.781,0.242c-0.176,0.352-0.311,0.869-0.311,1.483c0,1.738,1.111,2.896,3.062,2.896
				c1.826,0,2.979-1.045,2.979-2.838c0-0.594-0.12-1.188-0.309-1.573L706.519,305.687z"/>
			<path d="M699.334,303.521h7.416v0.968h-7.416V303.521z"/>
			<path d="M704.417,300.65l2.333,0.77v0.99l-7.416-2.53v-1.145l7.416-2.53v1.023l-2.333,0.792V300.65z M703.669,298.208
				l-2.134,0.737c-0.484,0.165-0.924,0.275-1.354,0.385v0.022c0.433,0.11,0.894,0.22,1.345,0.374l2.146,0.726L703.669,298.208
				L703.669,298.208z"/>
			<path d="M699.334,295.128v-0.968h6.612v-3.168h0.804v4.137L699.334,295.128L699.334,295.128z"/>
			<path d="M703.625,283.258h0.66v4.841h-0.66V283.258z"/>
			<path d="M706.519,274.59c0.179,0.341,0.354,1.056,0.354,1.958c0,2.09-1.32,3.652-3.764,3.652c-2.332,0-3.896-1.573-3.896-3.873
				c0-0.913,0.199-1.507,0.33-1.76l0.781,0.242c-0.176,0.352-0.311,0.869-0.311,1.485c0,1.738,1.111,2.894,3.062,2.894
				c1.826,0,2.979-1.045,2.979-2.838c0-0.594-0.12-1.188-0.309-1.573L706.519,274.59z"/>
			<path d="M702.965,267.275c2.541,0,3.906,1.551,3.906,3.443c0,1.969-1.529,3.333-3.773,3.333c-2.354,0-3.895-1.452-3.895-3.433
				C699.203,268.584,700.754,267.275,702.965,267.275z M703.075,273.04c1.595,0,3.015-0.858,3.015-2.376s-1.396-2.376-3.081-2.376
				c-1.482,0-3.022,0.771-3.022,2.366C699.984,272.249,701.457,273.04,703.075,273.04z"/>
			<path d="M699.422,266.034c-0.076-0.462-0.143-1.067-0.143-1.837c0-0.946,0.221-1.639,0.613-2.079
				c0.354-0.396,0.895-0.649,1.555-0.649c0.67,0,1.197,0.198,1.584,0.572c0.539,0.517,0.813,1.331,0.813,2.266
				c0,0.286-0.012,0.55-0.063,0.77h2.971v0.958L699.422,266.034L699.422,266.034z M702.998,265.076
				c0.055-0.209,0.077-0.473,0.077-0.792c0-1.155-0.572-1.859-1.573-1.859c-0.99,0-1.463,0.704-1.463,1.75
				c0,0.418,0.033,0.737,0.076,0.902L702.998,265.076L702.998,265.076z"/>
			<path d="M699.334,259.224h7.416v0.968h-7.416V259.224z"/>
			<path d="M704.417,256.354l2.333,0.77v0.99l-7.416-2.53v-1.145l7.416-2.53v1.023l-2.333,0.792V256.354z M703.669,253.911
				l-2.134,0.737c-0.484,0.165-0.924,0.275-1.354,0.385v0.022c0.433,0.11,0.894,0.22,1.345,0.374l2.146,0.727L703.669,253.911
				L703.669,253.911z"/>
			<path d="M706.519,243.318c0.179,0.341,0.354,1.056,0.354,1.958c0,2.09-1.32,3.652-3.764,3.652c-2.332,0-3.896-1.573-3.896-3.873
				c0-0.913,0.199-1.507,0.33-1.76l0.781,0.242c-0.176,0.352-0.311,0.869-0.311,1.485c0,1.738,1.111,2.894,3.062,2.894
				c1.826,0,2.979-1.045,2.979-2.838c0-0.594-0.12-1.188-0.309-1.573L706.519,243.318z"/>
			<path d="M702.965,236.003c2.541,0,3.906,1.551,3.906,3.443c0,1.969-1.529,3.333-3.773,3.333c-2.354,0-3.895-1.452-3.895-3.433
				C699.203,237.312,700.754,236.003,702.965,236.003z M703.075,241.768c1.595,0,3.015-0.858,3.015-2.376s-1.396-2.376-3.081-2.376
				c-1.482,0-3.022,0.771-3.022,2.366C699.984,240.977,701.457,241.768,703.075,241.768z"/>
			<path d="M706.75,234.761h-7.416v-1.056l3.752-2.366c0.869-0.539,1.65-0.979,2.409-1.32l-0.011-0.033
				c-0.99,0.088-1.896,0.11-3.047,0.11h-3.104v-0.902h7.416v0.968l-3.764,2.354c-0.824,0.517-1.672,1.012-2.478,1.375l0.014,0.033
				c0.935-0.055,1.824-0.066,3.059-0.066h3.169L706.75,234.761L706.75,234.761z"/>
			<path d="M700.148,226.115v2.255h-0.814v-5.49h0.814v2.267h6.602v0.968H700.148z"/>
			<path d="M699.434,222.056c-0.088-0.484-0.151-1.188-0.151-1.837c0-1.023,0.197-1.694,0.604-2.146
				c0.33-0.363,0.836-0.583,1.419-0.583c0.971,0,1.617,0.616,1.883,1.386h0.031c0.198-0.561,0.729-0.902,1.497-1.078
				c1.033-0.242,1.748-0.418,2.035-0.572v0.99c-0.221,0.121-0.848,0.286-1.771,0.484c-1.021,0.22-1.406,0.627-1.439,1.496v0.902
				h3.213v0.958H699.434L699.434,222.056z M702.811,221.099v-0.979c0-1.023-0.561-1.672-1.405-1.672
				c-0.957,0-1.375,0.693-1.375,1.706c0,0.462,0.03,0.781,0.077,0.946L702.811,221.099L702.811,221.099z"/>
			<path d="M702.965,209.768c2.541,0,3.906,1.551,3.906,3.443c0,1.969-1.529,3.333-3.773,3.333c-2.354,0-3.895-1.452-3.895-3.433
				C699.203,211.077,700.754,209.768,702.965,209.768z M703.075,215.533c1.595,0,3.015-0.858,3.015-2.376
				c0-1.518-1.396-2.376-3.081-2.376c-1.482,0-3.022,0.77-3.022,2.365S701.457,215.533,703.075,215.533z"/>
			<path d="M699.334,208.537v-0.968h6.612V204.4h0.804v4.137H699.334L699.334,208.537z"/>
			<path d="M704.417,202.135l2.333,0.771v0.99l-7.416-2.53v-1.146l7.416-2.53v1.023l-2.333,0.792V202.135z M703.669,199.693
				l-2.134,0.737c-0.484,0.165-0.924,0.275-1.354,0.385v0.022c0.433,0.11,0.894,0.22,1.345,0.374l2.146,0.726L703.669,199.693
				L703.669,199.693z"/>
			<path d="M699.444,196.603c-0.102-0.583-0.165-1.276-0.165-2.036c0-1.375,0.33-2.354,0.924-3.003
				c0.604-0.671,1.464-1.056,2.662-1.056c1.211,0,2.201,0.385,2.883,1.067c0.693,0.704,1.067,1.848,1.067,3.29
				c0,0.693-0.032,1.254-0.091,1.738H699.444z M706.002,195.645c0.032-0.242,0.043-0.594,0.043-0.968
				c0-2.058-1.144-3.158-3.146-3.158c-1.748-0.011-2.859,0.979-2.859,3.003c0,0.495,0.043,0.869,0.099,1.122L706.002,195.645
				L706.002,195.645z"/>
			<path d="M704.417,188.231l2.333,0.77v0.99l-7.416-2.53v-1.145l7.416-2.53v1.023l-2.333,0.792V188.231z M703.669,185.789
				l-2.134,0.737c-0.484,0.165-0.924,0.275-1.354,0.385v0.022c0.433,0.11,0.894,0.22,1.345,0.374l2.146,0.726L703.669,185.789
				L703.669,185.789z"/>
		</g>
		<g>
			<path d="M706.519,760.602c0.179,0.343,0.354,1.06,0.354,1.957c0,2.095-1.32,3.654-3.764,3.654c-2.332,0-3.896-1.574-3.896-3.873
				c0-0.914,0.199-1.508,0.33-1.76l0.781,0.242c-0.176,0.352-0.311,0.869-0.311,1.481c0,1.738,1.111,2.896,3.062,2.896
				c1.826,0,2.979-1.045,2.979-2.838c0-0.597-0.12-1.188-0.309-1.572L706.519,760.602z"/>
			<path d="M702.965,753.287c2.541,0,3.906,1.551,3.906,3.442c0,1.97-1.529,3.33-3.773,3.33c-2.354,0-3.895-1.448-3.895-3.432
				C699.203,754.596,700.754,753.287,702.965,753.287z M703.075,759.051c1.595,0,3.015-0.854,3.015-2.375
				c0-1.52-1.396-2.377-3.081-2.377c-1.482,0-3.022,0.771-3.022,2.365S701.457,759.051,703.075,759.051z"/>
			<path d="M706.75,752.045h-7.416v-1.057l3.752-2.365c0.869-0.539,1.65-0.979,2.409-1.32l-0.011-0.033
				c-0.99,0.091-1.896,0.109-3.047,0.109h-3.104v-0.9h7.416v0.97l-3.764,2.354c-0.824,0.518-1.672,1.012-2.478,1.375l0.014,0.033
				c0.935-0.055,1.824-0.066,3.059-0.066h3.169L706.75,752.045L706.75,752.045z"/>
			<path d="M699.334,744.818v-3.994h0.804v3.022h2.464v-2.795h0.793v2.795h3.355v0.972H699.334L699.334,744.818z"/>
			<path d="M699.334,738.492h7.416v0.969h-7.416V738.492z"/>
			<path d="M699.444,736.82c-0.102-0.582-0.165-1.275-0.165-2.035c0-1.375,0.33-2.354,0.924-3.004
				c0.604-0.67,1.464-1.058,2.662-1.058c1.211,0,2.201,0.388,2.883,1.066c0.693,0.705,1.067,1.848,1.067,3.289
				c0,0.693-0.032,1.254-0.091,1.738L699.444,736.82L699.444,736.82z M706.002,735.863c0.032-0.242,0.043-0.597,0.043-0.968
				c0-2.061-1.144-3.157-3.146-3.157c-1.748-0.015-2.859,0.979-2.859,3.004c0,0.494,0.043,0.869,0.099,1.121H706.002z"/>
			<path d="M703.273,725.666v2.871h2.673v-3.211h0.804v4.18h-7.416v-4.016h0.804v3.047h2.346v-2.871H703.273z"/>
			<path d="M706.75,724.084h-7.416v-1.057l3.752-2.365c0.869-0.539,1.65-0.98,2.409-1.32l-0.011-0.033
				c-0.99,0.089-1.896,0.109-3.047,0.109h-3.104v-0.902h7.416v0.972l-3.764,2.354c-0.824,0.521-1.672,1.014-2.478,1.377l0.014,0.031
				c0.935-0.055,1.824-0.064,3.059-0.064h3.169L706.75,724.084L706.75,724.084z"/>
			<path d="M706.519,711.674c0.179,0.342,0.354,1.06,0.354,1.959c0,2.09-1.32,3.652-3.764,3.652c-2.332,0-3.896-1.572-3.896-3.873
				c0-0.912,0.199-1.506,0.33-1.76l0.781,0.239c-0.176,0.354-0.311,0.869-0.311,1.484c0,1.738,1.111,2.896,3.062,2.896
				c1.826,0,2.979-1.046,2.979-2.841c0-0.596-0.12-1.188-0.309-1.571L706.519,711.674z"/>
			<path d="M699.334,709.508h7.416v0.969h-7.416V709.508z"/>
			<path d="M704.417,706.637l2.333,0.771v0.99l-7.416-2.531v-1.146l7.416-2.526v1.021l-2.333,0.791V706.637z M703.669,704.195
				l-2.134,0.733c-0.484,0.166-0.924,0.275-1.354,0.388v0.021c0.433,0.109,0.894,0.219,1.345,0.373l2.146,0.729L703.669,704.195
				L703.669,704.195z"/>
			<path d="M699.334,701.115v-0.97h6.612v-3.17h0.804v4.14H699.334z"/>
			<path d="M703.625,689.246h0.66v4.84h-0.66V689.246z"/>
			<path d="M706.519,680.578c0.179,0.34,0.354,1.057,0.354,1.959c0,2.09-1.32,3.651-3.764,3.651c-2.332,0-3.896-1.573-3.896-3.872
				c0-0.914,0.199-1.511,0.33-1.763l0.781,0.242c-0.176,0.354-0.311,0.869-0.311,1.484c0,1.735,1.111,2.893,3.062,2.893
				c1.826,0,2.979-1.045,2.979-2.838c0-0.594-0.12-1.188-0.309-1.572L706.519,680.578z"/>
			<path d="M702.965,673.264c2.541,0,3.906,1.554,3.906,3.443c0,1.969-1.529,3.332-3.773,3.332c-2.354,0-3.895-1.451-3.895-3.433
				C699.203,674.572,700.754,673.264,702.965,673.264z M703.075,679.027c1.595,0,3.015-0.857,3.015-2.377
				c0-1.521-1.396-2.375-3.081-2.375c-1.482,0-3.022,0.77-3.022,2.362C699.984,678.235,701.457,679.027,703.075,679.027z"/>
			<path d="M699.422,672.021c-0.076-0.465-0.143-1.067-0.143-1.84c0-0.942,0.221-1.639,0.613-2.076
				c0.354-0.396,0.895-0.649,1.555-0.649c0.67,0,1.197,0.199,1.584,0.572c0.539,0.518,0.813,1.332,0.813,2.266
				c0,0.287-0.012,0.551-0.063,0.771h2.971v0.955L699.422,672.021L699.422,672.021z M702.998,671.064
				c0.055-0.209,0.077-0.476,0.077-0.794c0-1.153-0.572-1.858-1.573-1.858c-0.99,0-1.463,0.705-1.463,1.75
				c0,0.418,0.033,0.736,0.076,0.901L702.998,671.064L702.998,671.064z"/>
			<path d="M699.334,665.211h7.416v0.969h-7.416V665.211z"/>
			<path d="M704.417,662.342l2.333,0.771v0.987l-7.416-2.528v-1.146l7.416-2.528v1.022l-2.333,0.791V662.342z M703.669,659.898
				l-2.134,0.733c-0.484,0.166-0.924,0.275-1.354,0.389v0.021c0.433,0.109,0.894,0.221,1.345,0.373l2.146,0.727L703.669,659.898
				L703.669,659.898z"/>
			<path d="M706.519,649.305c0.179,0.343,0.354,1.06,0.354,1.959c0,2.091-1.32,3.652-3.764,3.652c-2.332,0-3.896-1.572-3.896-3.873
				c0-0.912,0.199-1.506,0.33-1.76l0.781,0.242c-0.176,0.352-0.311,0.866-0.311,1.481c0,1.738,1.111,2.896,3.062,2.896
				c1.826,0,2.979-1.045,2.979-2.838c0-0.599-0.12-1.189-0.309-1.574L706.519,649.305z"/>
			<path d="M702.965,641.99c2.541,0,3.906,1.551,3.906,3.44c0,1.972-1.529,3.334-3.773,3.334c-2.354,0-3.895-1.451-3.895-3.434
				C699.203,643.299,700.754,641.99,702.965,641.99z M703.075,647.756c1.595,0,3.015-0.858,3.015-2.377
				c0-1.518-1.396-2.377-3.081-2.377c-1.482,0-3.022,0.771-3.022,2.365C699.983,646.963,701.457,647.756,703.075,647.756z"/>
			<path d="M706.75,640.748h-7.416v-1.057l3.752-2.365c0.869-0.539,1.65-0.979,2.409-1.32l-0.011-0.033
				c-0.99,0.088-1.896,0.111-3.047,0.111h-3.104v-0.902h7.416v0.972l-3.764,2.354c-0.824,0.521-1.672,1.012-2.478,1.375l0.014,0.033
				c0.935-0.055,1.824-0.066,3.059-0.066h3.169L706.75,640.748L706.75,640.748z"/>
			<path d="M700.148,632.102v2.259h-0.814v-5.49h0.814v2.268h6.602v0.967L700.148,632.102L700.148,632.102z"/>
			<path d="M699.434,628.043c-0.088-0.484-0.151-1.188-0.151-1.836c0-1.023,0.197-1.695,0.604-2.146
				c0.33-0.361,0.836-0.58,1.419-0.58c0.971,0,1.617,0.612,1.883,1.385h0.031c0.198-0.563,0.729-0.9,1.497-1.078
				c1.033-0.242,1.748-0.418,2.035-0.572v0.99c-0.221,0.121-0.848,0.287-1.771,0.484c-1.021,0.221-1.406,0.627-1.439,1.493v0.902
				h3.213v0.957H699.434L699.434,628.043z M702.811,627.086v-0.979c0-1.023-0.561-1.675-1.405-1.675
				c-0.957,0-1.375,0.693-1.375,1.705c0,0.461,0.03,0.781,0.077,0.945L702.811,627.086L702.811,627.086z"/>
			<path d="M702.965,615.756c2.541,0,3.906,1.551,3.906,3.443c0,1.969-1.529,3.334-3.773,3.334c-2.354,0-3.895-1.453-3.895-3.437
				C699.203,617.064,700.754,615.756,702.965,615.756z M703.075,621.521c1.595,0,3.015-0.855,3.015-2.375
				c0-1.521-1.396-2.378-3.081-2.378c-1.482,0-3.022,0.771-3.022,2.365S701.457,621.521,703.075,621.521z"/>
			<path d="M699.334,614.525v-0.972h6.612v-3.168h0.804v4.14H699.334L699.334,614.525z"/>
			<path d="M704.417,608.123l2.333,0.77v0.99l-7.416-2.528v-1.146l7.416-2.531v1.023l-2.333,0.793V608.123z M703.669,605.68
				l-2.134,0.738c-0.484,0.164-0.924,0.275-1.354,0.385v0.021c0.433,0.106,0.894,0.221,1.345,0.375l2.146,0.725L703.669,605.68
				L703.669,605.68z"/>
			<path d="M699.444,602.59c-0.102-0.584-0.165-1.272-0.165-2.035c0-1.375,0.33-2.354,0.924-3.004
				c0.604-0.67,1.464-1.057,2.662-1.057c1.211,0,2.201,0.387,2.883,1.067c0.693,0.701,1.067,1.849,1.067,3.287
				c0,0.693-0.032,1.256-0.091,1.738L699.444,602.59L699.444,602.59z M706.002,601.633c0.032-0.242,0.043-0.594,0.043-0.969
				c0-2.057-1.144-3.156-3.146-3.156c-1.748-0.012-2.859,0.979-2.859,3.002c0,0.496,0.043,0.869,0.099,1.123H706.002z"/>
			<path d="M704.417,594.219l2.333,0.771v0.987l-7.416-2.526v-1.146l7.416-2.528v1.021l-2.333,0.793V594.219z M703.669,591.777
				l-2.134,0.733c-0.484,0.164-0.924,0.275-1.354,0.388v0.021c0.433,0.111,0.894,0.221,1.345,0.375l2.146,0.729L703.669,591.777
				L703.669,591.777z"/>
		</g>
	</g>
</g>
</svg>
