<svg width="280" height="120" viewBox="0 0 280 120" fill="none" xmlns="http://www.w3.org/2000/svg">
<path d="M86.849 66.9999C86.4871 67.1388 86.1773 67.2529 85.9203 67.3428C85.6628 67.4327 85.4156 67.5142 85.1785 67.5877C84.9414 67.6611 84.5975 67.755 84.1474 67.8692C83.3834 68.0489 82.6216 68.1857 81.8619 68.2793C81.102 68.3732 80.2999 68.4202 79.4557 68.4202C77.7592 68.4202 76.1912 68.1061 74.7519 67.4776C73.3125 66.8493 72.1607 65.874 71.2966 64.5519C70.4322 63.2298 70 61.6058 70 59.6797C70 58.4392 70.2231 57.2213 70.6694 56.0256C71.1156 54.83 71.7971 53.8731 72.7138 53.1548C73.4694 52.559 74.2352 52.1041 75.0113 51.7898C75.7872 51.4757 76.5449 51.2654 77.2847 51.1593C78.0243 51.0533 78.8407 51.0002 79.733 51.0002C81.2046 51.0002 82.4185 51.1123 83.3755 51.3367C84.3322 51.5614 85.3815 51.8569 86.5233 52.2244V56.2398C85.7676 55.7909 84.9675 55.4155 84.1232 55.1136C83.279 54.8116 82.2256 54.6606 80.9633 54.6606C79.5079 54.6606 78.3441 54.9403 77.4717 55.4992C76.5991 56.0583 75.9922 56.7254 75.6505 57.5007C75.3087 58.2762 75.138 59.0268 75.138 59.7532C75.138 60.6101 75.3349 61.3996 75.7289 62.122C76.1227 62.8442 76.7179 63.4237 77.5139 63.8602C78.3101 64.2969 79.2707 64.5152 80.3964 64.5152C81.0396 64.5152 81.7231 64.4294 82.4468 64.258V62.2626H80.1794V58.8471H86.8491V66.9999H86.849Z" fill="white"/>
<path d="M106.138 68.1996H100.723L99.4081 65.1882C98.9257 64.0865 98.4914 63.2806 98.1055 62.7704C97.7196 62.2605 97.3437 61.934 96.9779 61.7911C96.6118 61.6486 96.1396 61.577 95.5607 61.577H94.9939V68.1998H89.9523V51.2327H98.5276C99.9104 51.2327 101.044 51.5185 101.929 52.0896C102.813 52.661 103.45 53.3547 103.84 54.1708C104.231 54.987 104.425 55.7623 104.425 56.4967C104.425 57.3537 104.263 58.078 103.937 58.6697C103.611 59.2614 103.268 59.6917 102.906 59.9612C102.544 60.2305 102.138 60.4876 101.688 60.7324C102.226 61.0508 102.671 61.4283 103.02 61.8647C103.37 62.3014 103.847 63.1849 104.45 64.5152L106.138 68.1996ZM99.2876 56.5945C99.2876 55.811 99.0342 55.2643 98.5276 54.954C98.0211 54.6439 97.1967 54.4889 96.0552 54.4889H94.9939V58.5777H96.0792C97.3096 58.5777 98.1518 58.4412 98.6061 58.1676C99.0602 57.8941 99.2876 57.3699 99.2876 56.5945Z" fill="white"/>
<path d="M124.631 60.5976C124.631 62.0502 124.364 63.2888 123.829 64.3128C123.294 65.3371 122.587 66.1471 121.706 66.7428C120.826 67.3387 119.877 67.7671 118.86 68.0282C117.843 68.2894 116.828 68.4199 115.815 68.4199C114.4 68.4199 113.023 68.175 111.684 67.6854C110.345 67.1957 109.225 66.3632 108.325 65.1881C107.424 64.0129 106.974 62.4825 106.974 60.5974V51.2324H112.003V59.2753C112.003 60.3934 112.162 61.3176 112.48 62.0481C112.797 62.7786 113.24 63.3131 113.807 63.6516C114.373 63.9903 115.043 64.1596 115.815 64.1596C116.554 64.1596 117.21 63.9925 117.781 63.6577C118.351 63.3232 118.796 62.7928 119.113 62.0663C119.431 61.34 119.59 60.4178 119.59 59.2995V51.2322H124.631V60.5976V60.5976Z" fill="white"/>
<path d="M142.196 56.57C142.196 57.1985 142.089 57.8126 141.876 58.4124C141.663 59.0123 141.319 59.5714 140.845 60.0895C140.37 60.6079 139.729 61.028 138.921 61.3503C138.113 61.673 137.162 61.8339 136.069 61.8339H132.764V68.1996H127.723V51.2325H136.069C137.162 51.2325 138.113 51.3959 138.921 51.7222C139.729 52.0486 140.37 52.4731 140.845 52.9953C141.32 53.5177 141.663 54.0849 141.876 54.6968C142.089 55.3092 142.196 55.9334 142.196 56.57ZM137.058 56.5945C137.058 55.7865 136.823 55.2337 136.352 54.9358C135.882 54.6379 135.04 54.489 133.826 54.489H132.764V58.5778H133.85C134.686 58.5778 135.329 58.5249 135.779 58.4186C136.23 58.3126 136.555 58.1168 136.756 57.831C136.957 57.5453 137.058 57.1331 137.058 56.5945Z" fill="white"/>
<path d="M162.016 59.7039C162.016 61.2874 161.656 62.7441 160.937 64.0743C160.217 65.4047 159.146 66.4614 157.722 67.2449C156.299 68.0284 154.566 68.4201 152.524 68.4201C150.457 68.4201 148.709 68.012 147.278 67.1959C145.846 66.38 144.783 65.3067 144.087 63.9764C143.392 62.646 143.044 61.2218 143.044 59.7039C143.044 58.178 143.39 56.7518 144.081 55.4254C144.773 54.0993 145.836 53.0303 147.271 52.2181C148.707 51.4061 150.457 51.0001 152.524 51.0001C154.068 51.0001 155.445 51.2327 156.655 51.6979C157.865 52.163 158.86 52.7935 159.64 53.5892C160.42 54.385 161.01 55.3113 161.413 56.3682C161.815 57.425 162.016 58.5368 162.016 59.7039ZM156.878 59.7039C156.878 59.0674 156.785 58.4859 156.6 57.9596C156.415 57.4331 156.136 56.9762 155.762 56.5884C155.388 56.2009 154.932 55.8989 154.393 55.6825C153.854 55.4663 153.231 55.358 152.524 55.358C151.173 55.358 150.112 55.7579 149.34 56.5576C148.568 57.3575 148.182 58.4062 148.182 59.7038C148.182 61.0014 148.57 62.0523 149.346 62.8561C150.122 63.66 151.181 64.0619 152.524 64.0619C153.448 64.0619 154.236 63.8764 154.888 63.5048C155.539 63.1335 156.033 62.6194 156.371 61.9623C156.709 61.3056 156.878 60.5529 156.878 59.7039Z" fill="white"/>
<path d="M185.723 66.9265C185.032 67.2937 184.324 67.5876 183.601 67.808C182.877 68.0284 182.147 68.1857 181.411 68.2792C180.676 68.3731 179.914 68.4201 179.126 68.4201C177.67 68.4201 176.366 68.2161 175.212 67.808C174.058 67.3999 173.057 66.7981 172.209 66.0023C171.361 65.2066 170.725 64.2763 170.303 63.2111C169.881 62.1462 169.67 60.9771 169.67 59.7039C169.67 58.2431 169.919 56.9638 170.418 55.8661C170.916 54.7686 171.614 53.8564 172.511 53.13C173.407 52.4038 174.428 51.8672 175.574 51.5203C176.72 51.1735 177.928 51.0001 179.198 51.0001C181.096 51.0001 183.247 51.4285 185.651 52.2855V56.7904C184.823 56.2682 184.005 55.8337 183.197 55.4867C182.388 55.1399 181.438 54.9665 180.344 54.9665C179.371 54.9665 178.463 55.1624 177.618 55.5541C176.774 55.9458 176.095 56.5048 175.58 57.2311C175.065 57.9576 174.808 58.8062 174.808 59.7774C174.808 60.6344 175.033 61.4199 175.484 62.1339C175.934 62.8482 176.559 63.4154 177.359 63.8355C178.159 64.2559 179.061 64.466 180.067 64.466C180.879 64.466 181.647 64.3661 182.37 64.1659C183.094 63.966 183.703 63.7436 184.198 63.4988C184.692 63.2539 185.201 62.9642 185.723 62.6295V66.9265V66.9265Z" fill="white"/>
<path d="M224.241 68.1996H218.826L217.512 65.1882C217.029 64.0865 216.595 63.2806 216.209 62.7704C215.823 62.2605 215.447 61.934 215.081 61.7911C214.715 61.6486 214.243 61.577 213.664 61.577H213.097V68.1998H208.056V51.2327H216.631C218.014 51.2327 219.148 51.5185 220.032 52.0896C220.917 52.661 221.554 53.3547 221.944 54.1708C222.334 54.987 222.529 55.7623 222.529 56.4967C222.529 57.3537 222.366 58.078 222.04 58.6697C221.715 59.2614 221.371 59.6917 221.009 59.9612C220.647 60.2305 220.241 60.4876 219.791 60.7324C220.33 61.0508 220.774 61.4283 221.124 61.8647C221.474 62.3014 221.95 63.1849 222.553 64.5152L224.241 68.1996ZM217.391 56.5945C217.391 55.811 217.138 55.2643 216.631 54.954C216.124 54.6439 215.3 54.4889 214.158 54.4889H213.097V58.5777H214.183C215.413 58.5777 216.255 58.4412 216.709 58.1676C217.164 57.8941 217.391 57.3699 217.391 56.5945Z" fill="white"/>
<path d="M237.356 63.2662C237.356 64.3273 237.088 65.2454 236.553 66.0207C236.019 66.7962 235.273 67.3899 234.316 67.8019C233.359 68.2138 232.262 68.4201 231.024 68.4201C230.678 68.4201 230.254 68.3976 229.751 68.3527C229.249 68.3077 228.581 68.1834 227.749 67.9794C226.917 67.7756 226.05 67.4734 225.15 67.0735V62.9112C225.994 63.4419 226.824 63.8825 227.641 64.2333C228.457 64.5842 229.331 64.7597 230.264 64.7597C231.124 64.7597 231.681 64.6149 231.934 64.3252C232.187 64.0356 232.314 63.7642 232.314 63.5109C232.314 63.054 232.097 62.6684 231.663 62.3541C231.228 62.0402 230.597 61.7156 229.769 61.381C228.852 60.9893 228.048 60.5628 227.357 60.1016C226.665 59.6407 226.101 59.0631 225.663 58.3694C225.224 57.6758 225.005 56.8557 225.005 55.9089C225.005 54.995 225.226 54.1686 225.669 53.4299C226.111 52.6914 226.786 52.1016 227.695 51.6609C228.603 51.2203 229.713 51 231.024 51C231.956 51 232.819 51.0917 233.611 51.2755C234.403 51.4591 235.056 51.6653 235.571 51.8936C236.085 52.1221 236.439 52.3019 236.632 52.4323V56.4108C235.948 55.9131 235.186 55.4682 234.346 55.0765C233.506 54.6848 232.608 54.4889 231.651 54.4889C231.024 54.4889 230.569 54.6114 230.288 54.8561C230.006 55.101 229.866 55.4029 229.866 55.7621C229.866 56.0968 230.006 56.3865 230.288 56.6314C230.569 56.8762 231.072 57.1741 231.796 57.525C233.082 58.1371 234.111 58.688 234.883 59.1777C235.655 59.6673 236.26 60.2325 236.698 60.8731C237.136 61.5137 237.356 62.3116 237.356 63.2662Z" fill="white"/>
<path d="M252.52 68.1996H239.916V51.2325H252.315V54.6358H244.958V57.7452H251.977V61.1607H244.958V64.7842H252.52V68.1996Z" fill="white"/>
<path d="M270 66.9265C269.308 67.2937 268.601 67.5876 267.877 67.808C267.154 68.0284 266.424 68.1857 265.688 68.2792C264.952 68.3731 264.19 68.4201 263.403 68.4201C261.947 68.4201 260.643 68.2161 259.489 67.808C258.335 67.3999 257.334 66.7981 256.486 66.0023C255.637 65.2066 255.002 64.2763 254.58 63.2111C254.158 62.1462 253.947 60.9771 253.947 59.7039C253.947 58.2431 254.196 56.9638 254.695 55.8661C255.193 54.7686 255.891 53.8564 256.787 53.13C257.684 52.4038 258.705 51.8672 259.851 51.5203C260.996 51.1735 262.204 51.0001 263.475 51.0001C265.372 51.0001 267.523 51.4285 269.928 52.2855V56.7904C269.099 56.2682 268.281 55.8337 267.473 55.4867C266.665 55.1399 265.714 54.9665 264.621 54.9665C263.648 54.9665 262.739 55.1624 261.895 55.5541C261.051 55.9458 260.371 56.5048 259.857 57.2311C259.342 57.9576 259.085 58.8062 259.085 59.7774C259.085 60.6344 259.31 61.4199 259.76 62.1339C260.21 62.8482 260.836 63.4154 261.636 63.8355C262.436 64.2559 263.338 64.466 264.343 64.466C265.155 64.466 265.923 64.3661 266.647 64.1659C267.371 63.966 267.98 63.7436 268.474 63.4988C268.969 63.2539 269.477 62.9642 270 62.6295V66.9265V66.9265Z" fill="white"/>
<path d="M205.181 56.368C204.779 55.3112 204.188 54.3849 203.408 53.5892C202.628 52.7935 201.634 52.163 200.423 51.6979C199.213 51.2327 197.836 51.0001 196.292 51.0001C194.226 51.0001 192.475 51.4061 191.04 52.2182C189.605 53.0302 188.541 54.0993 187.85 55.4256C187.158 56.7517 186.813 58.178 186.813 59.7041C186.813 61.2221 187.16 62.6462 187.856 63.9765C188.551 65.3068 189.615 66.38 191.046 67.1962C191.972 67.7245 193.034 68.0789 194.227 68.2652V61.6858C194.227 61.6858 193.984 57.7046 198.149 56.4322C198.149 56.4322 199.16 61.3985 194.874 63.1223V68.3494C195.329 68.3956 195.801 68.4202 196.292 68.4202C198.335 68.4202 200.067 68.0285 201.491 67.245C202.914 66.4615 203.985 65.4046 204.705 64.0745C205.425 62.7443 205.784 61.2874 205.784 59.7041C205.784 58.537 205.583 57.4249 205.181 56.368Z" fill="white" fill-opacity="0.4"/>
<path d="M29.7535 70.9304C31.3555 73.0695 32.018 75.1141 32.1659 75.6198C33.3218 74.0696 34.6036 72.9244 35.917 72.0832C34.2315 71.3588 32.1389 70.8163 29.7535 70.9304Z" fill="white" fill-opacity="0.7"/>
<path d="M20.1115 79.6439C19.0758 79.0658 18.1458 78.3727 17.3114 77.6118C17.3044 77.6192 17.2975 77.6263 17.2906 77.6337C17.2906 77.6337 22.1463 82.7474 28.4585 84.1154C28.7539 82.8633 29.0994 81.7185 29.487 80.6727C25.1073 82.3802 20.1115 79.6439 20.1115 79.6439Z" fill="white" fill-opacity="0.7"/>
<path d="M50.1064 74.9856C49.4667 79.7085 44.5095 82.724 44.5095 82.724C43.5274 83.3398 42.4778 83.8016 41.4034 84.1432C41.4057 84.1507 41.4075 84.1578 41.4097 84.1652C41.4097 84.1652 48.2538 82.5683 52.6408 77.679C51.6742 76.7693 50.8343 75.8705 50.1064 74.9856Z" fill="white" fill-opacity="0.7"/>
<path d="M41.8429 70.0081C44.7798 69.6665 47.0283 70.2598 47.1669 70.2976C46.3832 68.5045 46.0212 66.8056 45.9439 65.2332C44.468 66.331 42.9431 67.8766 41.8429 70.0081Z" fill="white" fill-opacity="0.7"/>
<path d="M59.0339 53.3021C59.0666 53.425 59.0826 53.4923 59.0826 53.4923C57.8298 53.8697 56.6475 54.146 55.5315 54.3342C59.3183 57.2451 59.4505 63.0666 59.4505 63.0666C59.4674 64.2308 59.3351 65.3611 59.1021 66.4457C59.1066 66.4468 59.111 66.448 59.1156 66.449C59.1156 66.449 61.1588 59.6368 59.0339 53.3021Z" fill="white" fill-opacity="0.7"/>
<path d="M47.1014 59.0359C48.2699 56.3217 49.9059 54.6663 50.02 54.5529C48.0654 54.3425 46.4049 53.8109 44.9974 53.094C45.2149 54.9245 45.797 57.0189 47.1014 59.0359Z" fill="white" fill-opacity="0.7"/>
<path d="M28.0773 49.9995C25.4786 50.3203 23.3995 49.9033 22.8083 49.7635C23.5854 51.5396 23.9481 53.2231 24.0306 54.7832C25.4956 53.6761 26.9976 52.127 28.0773 49.9995Z" fill="white" fill-opacity="0.7"/>
<path d="M17.3332 42.3837C18.237 43.234 19.0302 44.0749 19.7246 44.9037C20.4366 40.2557 25.3031 37.2959 25.3031 37.2959C26.134 36.7996 26.9961 36.4028 27.8699 36.0872C26.0714 36.6159 20.62 38.4966 16.98 42.7381C17.2015 42.5087 17.3332 42.3837 17.3332 42.3837Z" fill="white" fill-opacity="0.7"/>
<path d="M20.0718 65.3958C21.9878 65.6196 23.6153 66.1552 24.9991 66.868C24.7797 65.047 24.1984 62.9673 22.9052 60.9631C21.8834 63.368 20.4865 64.9556 20.0718 65.3958Z" fill="white" fill-opacity="0.7"/>
<path d="M10.5272 57C10.5098 55.807 10.6485 54.6494 10.8925 53.5403C10.8897 53.5397 10.8871 53.5389 10.8843 53.5383C10.8843 53.5383 8.89499 60.1712 10.8838 66.4332C12.086 66.0719 13.2234 65.8037 14.2993 65.6172C10.6555 62.6708 10.5272 57 10.5272 57Z" fill="white" fill-opacity="0.7"/>
<path d="M40.1995 49.0123C38.5108 46.7615 37.862 44.6126 37.7598 44.2471C36.6001 45.8405 35.3086 47.017 33.9828 47.8808C35.6831 48.6061 37.7945 49.1435 40.1995 49.0123Z" fill="white" fill-opacity="0.7"/>
<path d="M40.3401 39.306C44.7474 37.5028 49.8327 40.2877 49.8327 40.2877C50.6784 40.7598 51.4535 41.3088 52.164 41.9083C50.8482 40.6473 46.4551 36.7961 40.8993 35.7614C41.1959 35.8357 41.359 35.8846 41.359 35.8846C41.0664 37.1285 40.7238 38.2655 40.3401 39.306Z" fill="white" fill-opacity="0.7"/>
<path d="M19.8845 75.1787C15.2472 74.4581 12.2951 69.6003 12.2951 69.6003C11.6859 68.5795 11.2263 67.5119 10.8837 66.4332C10.8763 66.4355 10.8691 66.4373 10.8616 66.4395C10.8616 66.4395 12.4551 73.1837 17.3113 77.6119C18.1799 76.6897 19.0385 75.8825 19.8845 75.1787Z" fill="white" fill-opacity="0.4"/>
<path opacity="0.7" d="M29.4871 80.6728C30.242 78.6359 31.1561 76.9741 32.1659 75.6198C32.0181 75.1141 31.3555 73.0695 29.7535 70.9304C28.1996 71.0047 26.5221 71.357 24.7518 72.1203C23.1936 72.7921 21.5641 73.7815 19.8845 75.1787C19.0385 75.8826 18.1799 76.6898 17.3114 77.6119C18.1459 78.3728 19.0759 79.0658 20.1115 79.644C20.1115 79.6439 25.1073 82.3802 29.4871 80.6728Z" fill="white" fill-opacity="0.3"/>
<path opacity="0.7" d="M19.8845 75.1788C21.564 73.7815 23.1936 72.7921 24.7518 72.1203C24.8843 71.5679 25.3144 69.4854 24.9991 66.8682C23.6154 66.1553 21.9878 65.6196 20.0718 65.3959C18.379 65.1982 16.4638 65.2422 14.2993 65.6173C13.2234 65.8038 12.086 66.0721 10.8838 66.4333C11.2264 67.5119 11.686 68.5796 12.2952 69.6004C12.2952 69.6004 15.2473 74.4581 19.8845 75.1788Z" fill="white" fill-opacity="0.3"/>
<path d="M31.9009 84.4424C30.7207 84.4813 29.5674 84.3557 28.4586 84.1154C28.457 84.1222 28.4552 84.1286 28.4536 84.1354C28.4536 84.1354 35.3269 86.0755 41.4035 84.1432C41.0287 82.8945 40.7537 81.7157 40.5666 80.603C37.6366 84.312 31.9009 84.4424 31.9009 84.4424Z" fill="white" fill-opacity="0.4"/>
<path opacity="0.7" d="M31.9009 84.4424C31.9009 84.4424 37.6366 84.3119 40.5666 80.603C40.2118 78.4929 40.1727 76.6212 40.3651 74.9627C40.0619 74.668 38.4488 73.1711 35.9171 72.0831C34.6037 72.9243 33.3218 74.0696 32.1659 75.6197C31.156 76.974 30.242 78.6359 29.487 80.6727C29.0994 81.7185 28.7538 82.8633 28.4586 84.1153C29.5673 84.3557 30.7207 84.4813 31.9009 84.4424Z" fill="white" fill-opacity="0.3"/>
<path opacity="0.7" d="M50.1064 74.9856C48.7774 73.3699 47.8239 71.8007 47.1669 70.2976C47.0283 70.2598 44.7798 69.6665 41.8429 70.008C41.1257 71.3977 40.5886 73.0355 40.3651 74.9627C40.1727 76.6212 40.2117 78.4929 40.5666 80.6031C40.7537 81.7157 41.0286 82.8946 41.4035 84.1433C42.4778 83.8016 43.5274 83.3399 44.5095 82.724C44.5095 82.7239 49.4667 79.7085 50.1064 74.9856Z" fill="white" fill-opacity="0.3"/>
<path d="M54.6092 74.9119C54.0532 75.9339 53.3819 76.8531 52.6409 77.679C52.6421 77.6802 52.6432 77.6813 52.6445 77.6825C52.6445 77.6825 57.7157 72.8983 59.1021 66.4458C57.8174 66.1427 56.6465 65.7864 55.5787 65.3864C57.4056 69.8021 54.6092 74.9119 54.6092 74.9119Z" fill="white" fill-opacity="0.4"/>
<path opacity="0.7" d="M55.5787 65.3865C53.6418 64.6609 52.0455 63.7912 50.733 62.8316C50.7242 62.8276 50.7153 62.8234 50.7066 62.8194C50.7066 62.8194 48.3939 63.4108 45.9439 65.2332C46.0212 66.8056 46.3832 68.5046 47.1669 70.2976C47.824 71.8008 48.7773 73.3699 50.1064 74.9856C50.8342 75.8705 51.6742 76.7694 52.6409 77.679C53.3819 76.8531 54.0533 75.9339 54.6092 74.9119C54.6092 74.9119 57.4055 69.8021 55.5787 65.3865Z" fill="white" fill-opacity="0.3"/>
<path opacity="0.7" d="M55.5316 54.3342C53.4761 54.6809 51.6464 54.728 50.02 54.5529C49.906 54.6663 48.27 56.3218 47.1014 59.0359C47.9627 60.3676 49.1384 61.6657 50.733 62.8314C52.0455 63.791 53.6418 64.6607 55.5787 65.3863C56.6465 65.7863 57.8174 66.1426 59.1022 66.4456C59.3352 65.361 59.4676 64.2307 59.4506 63.0665C59.4506 63.0666 59.3184 57.2451 55.5316 54.3342Z" fill="white" fill-opacity="0.3"/>
<path d="M52.5721 42.3138C51.6894 43.2527 50.8168 44.0728 49.9573 44.7863C54.6853 45.4195 57.7047 50.387 57.7047 50.387C58.2664 51.3283 58.7008 52.3093 59.0339 53.3021C58.725 52.1414 56.8868 45.8943 52.164 41.9086C52.4285 42.162 52.5721 42.3138 52.5721 42.3138Z" fill="white" fill-opacity="0.4"/>
<path opacity="0.7" d="M49.9574 44.7863C48.3445 46.1253 46.7777 47.0882 45.276 47.7552C45.1999 48.0458 44.6598 50.2517 44.9974 53.094C46.405 53.811 48.0654 54.3425 50.02 54.5529C51.6465 54.728 53.4761 54.681 55.5316 54.3342C56.6475 54.146 57.8299 53.8697 59.0827 53.4923C59.0827 53.4923 59.0667 53.425 59.034 53.3021C58.701 52.3093 58.2665 51.3282 57.7048 50.387C57.7048 50.387 54.6854 45.4194 49.9574 44.7863Z" fill="white" fill-opacity="0.3"/>
<path opacity="0.7" d="M40.3402 39.3063C39.6105 41.2852 38.7314 42.9122 37.7598 44.2472C37.862 44.6127 38.5109 46.7616 40.1994 49.0123C41.7764 48.9263 43.4792 48.5535 45.276 47.7553C46.7776 47.0883 48.3444 46.1254 49.9573 44.7864C50.8168 44.0728 51.6894 43.2527 52.5721 42.3138C52.5721 42.3138 52.4284 42.1621 52.164 41.9087C51.4536 41.309 50.6785 40.7601 49.8328 40.288C49.8328 40.2879 44.7474 37.503 40.3402 39.3063Z" fill="white" fill-opacity="0.3"/>
<path d="M15.2705 45.177C15.7659 44.2889 16.3455 43.4779 16.98 42.7386C15.8147 43.9458 12.0782 48.1527 10.8926 53.5404C12.1039 53.8259 13.2139 54.1588 14.232 54.531C12.5454 50.1556 15.2705 45.177 15.2705 45.177Z" fill="white" fill-opacity="0.4"/>
<path opacity="0.7" d="M14.2319 54.531C16.2969 55.2859 17.9812 56.203 19.3518 57.2185C19.9476 57.0388 21.9499 56.3558 24.0307 54.7831C23.9481 53.223 23.5854 51.5394 22.8083 49.7634C22.1274 48.2072 21.1289 46.5803 19.7246 44.9041C19.0302 44.0753 18.237 43.2344 17.3332 42.3841C17.3332 42.3841 17.2015 42.509 16.98 42.7385C16.3454 43.4779 15.7659 44.2888 15.2704 45.1769C15.2705 45.1771 12.5454 50.1557 14.2319 54.531Z" fill="white" fill-opacity="0.3"/>
<path opacity="0.7" d="M14.2993 65.6172C16.4637 65.242 18.3789 65.1981 20.0718 65.3958C20.4865 64.9556 21.8834 63.368 22.9052 60.9631C22.0586 59.6511 20.9079 58.3715 19.3518 57.2186C17.9813 56.203 16.2969 55.2859 14.2319 54.531C13.2138 54.1589 12.1038 53.8259 10.8925 53.5404C10.6484 54.6495 10.5098 55.8071 10.5272 57.0001C10.5272 57 10.6555 62.6708 14.2993 65.6172Z" fill="white" fill-opacity="0.3"/>
<path d="M29.2899 39.3523C32.2181 35.6358 37.9618 35.5051 37.9618 35.5051C38.9684 35.4903 39.9507 35.5851 40.8994 35.7617C39.2353 35.3446 33.3253 34.1168 27.87 36.0876C28.2519 35.9753 28.4699 35.9237 28.4699 35.9237C28.8332 37.1309 29.1024 38.2723 29.2899 39.3523Z" fill="white" fill-opacity="0.4"/>
<path opacity="0.7" d="M19.7246 44.9038C21.1289 46.5799 22.1274 48.2068 22.8083 49.7631C23.3995 49.9029 25.4787 50.3198 28.0774 49.9991C28.7876 48.5996 29.316 46.952 29.5274 45.0133C29.709 43.3478 29.6575 41.4687 29.2899 39.3519C29.1024 38.2719 28.8332 37.1305 28.4699 35.9233C28.4699 35.9233 28.2519 35.975 27.8699 36.0873C26.9962 36.4029 26.1341 36.7997 25.3031 37.296C25.3031 37.2959 20.4366 40.2558 19.7246 44.9038Z" fill="white" fill-opacity="0.3"/>
<path opacity="0.7" d="M29.2899 39.3522C29.6575 41.4689 29.709 43.3479 29.5274 45.0135C29.8985 45.3691 31.5043 46.8234 33.9827 47.8808C35.3085 47.017 36.6 45.8404 37.7598 44.247C38.7314 42.912 39.6105 41.285 40.3401 39.3061C40.7238 38.2656 41.0664 37.1287 41.359 35.8848C41.359 35.8848 41.1959 35.836 40.8993 35.7616C39.9507 35.585 38.9683 35.4902 37.9617 35.505C37.9618 35.5049 32.2181 35.6356 29.2899 39.3522Z" fill="white" fill-opacity="0.3"/>
<path d="M59.4505 63.0663C59.4505 63.0663 59.3183 57.2448 55.5315 54.3339C56.6474 54.1457 57.8298 53.8694 59.0826 53.492C59.0826 53.492 59.0666 53.4248 59.0339 53.3018C58.7009 52.3091 58.2664 51.3279 57.7047 50.3867C57.7047 50.3867 54.6853 45.4191 49.9573 44.786C50.8168 44.0725 51.6893 43.2524 52.572 42.3135C52.572 42.3135 52.4284 42.1617 52.164 41.9083C51.4535 41.3087 50.6784 40.7598 49.8328 40.2877C49.8328 40.2877 44.7475 37.5027 40.3402 39.306C40.7238 38.2655 41.0665 37.1285 41.359 35.8847C41.359 35.8847 41.196 35.8359 40.8993 35.7615C39.9507 35.5848 38.9684 35.4901 37.9617 35.5049C37.9617 35.5049 32.218 35.6355 29.2899 39.3521C29.1024 38.2721 28.8332 37.1306 28.4698 35.9235C28.4698 35.9235 28.2519 35.9751 27.8699 36.0874C26.9962 36.4031 26.134 36.7999 25.3031 37.2961C25.3031 37.2961 20.4366 40.2561 19.7246 44.904C19.0302 44.0751 18.237 43.2343 17.3332 42.384C17.3332 42.384 17.2015 42.5089 16.98 42.7384C16.3454 43.4777 15.7659 44.2886 15.2704 45.1768C15.2704 45.1768 12.5454 50.1554 14.2318 54.5307C13.2138 54.1585 12.1037 53.8256 10.8924 53.5401C10.6484 54.6491 10.5097 55.8068 10.5271 56.9998C10.5271 56.9998 10.6555 62.6706 14.2993 65.617C13.2234 65.8035 12.086 66.0718 10.8838 66.4329C11.2264 67.5116 11.686 68.5793 12.2952 69.6C12.2952 69.6 15.2473 74.4577 19.8846 75.1784C19.0386 75.8822 18.1799 76.6894 17.3115 77.6116C18.1459 78.3725 19.0759 79.0655 20.1115 79.6436C20.1115 79.6436 25.1073 82.3799 29.487 80.6725C29.0994 81.7183 28.7539 82.8631 28.4586 84.1152C29.5673 84.3555 30.7206 84.4811 31.9009 84.4422C31.9009 84.4422 37.6366 84.3117 40.5666 80.6028C40.7537 81.7154 41.0285 82.8943 41.4035 84.1429C42.4777 83.8013 43.5273 83.3396 44.5095 82.7237C44.5095 82.7237 49.4667 79.7083 50.1064 74.9854C50.8343 75.8702 51.6743 76.7691 52.6409 77.6787C53.3819 76.8528 54.0533 75.9336 54.6092 74.9116C54.6092 74.9116 57.4056 69.8019 55.5787 65.3862C56.6465 65.7862 57.8174 66.1425 59.1021 66.4455C59.335 65.3607 59.4674 64.2305 59.4505 63.0663ZM50.7065 62.8189C50.7065 62.8189 48.3939 63.4103 45.9439 65.2327C46.0211 66.8052 46.3832 68.5041 47.1669 70.2972C47.0283 70.2594 44.7798 69.6661 41.8429 70.0076C41.1257 71.3972 40.5886 73.0351 40.3651 74.9623C40.0618 74.6676 38.4487 73.1707 35.917 72.0827C34.6037 72.9239 33.3218 74.0692 32.1658 75.6193C32.018 75.1136 31.3554 73.069 29.7534 70.93C28.1995 71.0042 26.522 71.3565 24.7517 72.1198C24.8842 71.5674 25.3143 69.4849 24.999 66.8677C23.6152 66.1548 21.9877 65.6192 20.0717 65.3954C20.4864 64.9552 21.8833 63.3676 22.9052 60.9627C22.0586 59.6507 20.9078 58.3712 19.3518 57.2182C19.9475 57.0385 21.9499 56.3554 24.0306 54.7828C23.9481 53.2227 23.5854 51.5391 22.8083 49.7631C23.3994 49.9029 25.4786 50.3199 28.0773 49.9991C28.7876 48.5996 29.316 46.952 29.5274 45.0133C29.8984 45.3689 31.5042 46.8232 33.9827 47.8806C35.3085 47.0168 36.5999 45.8402 37.7597 44.2468C37.8619 44.6123 38.5108 46.7612 40.1993 49.012C41.7763 48.9259 43.4791 48.5531 45.2759 47.755C45.1998 48.0455 44.6597 50.2514 44.9973 53.0937C46.4049 53.8107 48.0653 54.3422 50.0199 54.5526C49.9059 54.6661 48.2699 56.3215 47.1013 59.0356C47.9626 60.3674 49.1383 61.6655 50.7329 62.8312C50.7241 62.8272 50.7152 62.823 50.7065 62.8189Z" fill="white"/>
<path d="M24.9991 66.8681C25.3143 69.4854 24.8843 71.5678 24.7517 72.1202C26.522 71.3569 28.1996 71.0047 29.7535 70.9304C28.6561 69.4651 27.1146 67.9579 24.9991 66.8681Z" fill="white" fill-opacity="0.4"/>
<path d="M40.3651 74.9627C40.5886 73.0355 41.1257 71.3976 41.8429 70.0079C40.0196 70.22 37.9314 70.7929 35.917 72.0831C38.4487 73.171 40.0619 74.6679 40.3651 74.9627Z" fill="white" fill-opacity="0.4"/>
<path d="M45.944 65.233C48.394 63.4107 50.7067 62.8193 50.7067 62.8193C50.7154 62.8233 50.7243 62.8275 50.733 62.8315C49.1384 61.6657 47.9627 60.3677 47.1015 59.0359C46.3726 60.7287 45.8261 62.833 45.944 65.233Z" fill="white" fill-opacity="0.4"/>
<path d="M44.9974 53.0941C44.6597 50.2518 45.1999 48.0458 45.276 47.7553C43.4792 48.5534 41.7764 48.9262 40.1994 49.0124C41.3057 50.487 42.8587 52.0048 44.9974 53.0941Z" fill="white" fill-opacity="0.4"/>
<path d="M24.0307 54.7832C21.9498 56.3559 19.9476 57.0388 19.3518 57.2186C20.9079 58.3716 22.0586 59.6511 22.9052 60.9632C23.6245 59.2702 24.157 57.1721 24.0307 54.7832Z" fill="white" fill-opacity="0.4"/>
<path d="M29.5274 45.0135C29.3161 46.9524 28.7877 48.6 28.0774 49.9994C29.9014 49.7743 31.9811 49.185 33.9828 47.8808C31.5043 46.8235 29.8985 45.3692 29.5274 45.0135Z" fill="white" fill-opacity="0.4"/>
</svg>
