<svg width="280" height="120" viewBox="0 0 280 120" fill="none" xmlns="http://www.w3.org/2000/svg">
<g clip-path="url(#clip0_1632_616)">
<rect width="280" height="120" rx="8" fill="#00784A"/>
<path d="M85 46.4842V14.4227H106.604V20.0115H91.7786V27.6512H105.492V33.24H91.7786V40.8953H106.667V46.4842H85Z" fill="white"/>
<path d="M123.359 46.4842H111.993V14.4227H123.453C126.678 14.4227 129.454 15.0645 131.781 16.3483C134.108 17.6215 135.898 19.4532 137.151 21.8432C138.414 24.2332 139.045 27.0928 139.045 30.4221C139.045 33.7619 138.414 36.6319 137.151 39.0324C135.898 41.4328 134.098 43.2749 131.75 44.5586C129.412 45.8423 126.615 46.4842 123.359 46.4842ZM118.772 40.6762H123.077C125.081 40.6762 126.766 40.3213 128.133 39.6116C129.511 38.8915 130.544 37.78 131.233 36.2771C131.932 34.7638 132.282 32.8121 132.282 30.4221C132.282 28.053 131.932 26.117 131.233 24.6141C130.544 23.1112 129.516 22.0049 128.149 21.2952C126.782 20.5855 125.096 20.2307 123.093 20.2307H118.772V40.6762Z" fill="white"/>
<path d="M153.773 46.9538C151.56 46.9538 149.65 46.5572 148.043 45.764C146.436 44.9708 145.199 43.8959 144.333 42.5391C143.477 41.1719 143.049 39.6481 143.049 37.9678C143.049 36.7154 143.299 35.6039 143.8 34.6333C144.301 33.6627 145 32.7704 145.898 31.9563C146.796 31.1318 147.839 30.3125 149.029 29.4985L155.244 25.4125C156.048 24.9011 156.637 24.3636 157.013 23.8C157.389 23.226 157.577 22.605 157.577 21.9371C157.577 21.3005 157.321 20.7108 156.81 20.1681C156.298 19.6254 155.573 19.3592 154.634 19.3697C154.007 19.3697 153.465 19.5106 153.005 19.7924C152.546 20.0637 152.186 20.4238 151.925 20.8726C151.675 21.3109 151.549 21.8014 151.549 22.3441C151.549 23.0121 151.737 23.6905 152.113 24.3793C152.489 25.0681 152.99 25.7987 153.616 26.571C154.242 27.3329 154.926 28.1574 155.667 29.0445L170.868 46.4842H163.917L151.236 32.3633C150.401 31.4136 149.567 30.4221 148.732 29.3889C147.907 28.3452 147.218 27.2389 146.665 26.07C146.112 24.8907 145.835 23.6122 145.835 22.2345C145.835 20.6795 146.195 19.281 146.916 18.039C147.646 16.797 148.669 15.816 149.984 15.0959C151.299 14.3653 152.833 14 154.587 14C156.298 14 157.775 14.3496 159.017 15.0489C160.269 15.7377 161.23 16.6561 161.897 17.8042C162.576 18.9418 162.915 20.1942 162.915 21.5614C162.915 23.0747 162.539 24.4471 161.788 25.6786C161.047 26.8997 160.003 27.9956 158.657 28.9662L152.113 33.6784C151.226 34.3254 150.568 34.9882 150.141 35.6665C149.723 36.3345 149.514 36.9763 149.514 37.5921C149.514 38.354 149.702 39.0376 150.078 39.6429C150.454 40.2482 150.986 40.7283 151.675 41.0832C152.364 41.4276 153.172 41.5998 154.101 41.5998C155.228 41.5998 156.34 41.3441 157.436 40.8327C158.542 40.3109 159.544 39.5751 160.442 38.6253C161.35 37.6652 162.075 36.5276 162.618 35.2126C163.16 33.8975 163.432 32.4416 163.432 30.8448H168.958C168.958 32.8069 168.744 34.5759 168.316 36.1519C167.888 37.7174 167.293 39.0846 166.531 40.2535C165.769 41.4119 164.898 42.3617 163.917 43.1027C163.604 43.301 163.301 43.4888 163.009 43.6663C162.717 43.8437 162.414 44.0315 162.101 44.2298C160.911 45.19 159.581 45.8841 158.109 46.312C156.648 46.7399 155.202 46.9538 153.773 46.9538Z" fill="white"/>
<path d="M173.772 46.4842V14.4227H195V20.0115H180.55V27.6512H193.591V33.24H180.55V46.4842H173.772Z" fill="white"/>
<path d="M85 50.3627H94.1835L103.883 74.0266H104.296L113.995 50.3627H123.179V85.5833H115.956V62.659H115.663L106.549 85.4114H101.63L92.5153 62.573H92.223V85.5833H85V50.3627Z" fill="white"/>
<path d="M135.385 85.5833H127.405L139.564 50.3627H149.16L161.301 85.5833H153.322L144.499 58.4112H144.224L135.385 85.5833ZM134.886 71.7393H153.734V77.5521H134.886V71.7393Z" fill="white"/>
<path d="M195 50.3627V85.5833H188.568L173.245 63.4157H172.987V85.5833H165.541V50.3627H172.076L187.278 72.5132H187.588V50.3627H195Z" fill="white"/>
<path d="M114 95.6647H119.824V97.6912H116.178V99.1998H119.56V101.136H116.178V103.007H119.929V105.156H114V95.6647Z" fill="white"/>
<path d="M120.726 102.016L122.793 101.841C122.838 102.295 122.929 102.64 123.067 102.877C123.291 103.261 123.611 103.454 124.026 103.454C124.337 103.454 124.575 103.356 124.741 103.162C124.911 102.964 124.995 102.735 124.995 102.476C124.995 102.23 124.915 102.01 124.756 101.816C124.596 101.621 124.225 101.438 123.643 101.265C122.689 100.976 122.01 100.592 121.604 100.113C121.194 99.6336 120.99 99.0228 120.99 98.2804C120.99 97.7927 121.094 97.333 121.301 96.9014C121.513 96.4654 121.828 96.1244 122.247 95.8784C122.669 95.628 123.246 95.5029 123.978 95.5029C124.877 95.5029 125.561 95.7295 126.032 96.1827C126.505 96.6316 126.786 97.3481 126.876 98.3322L124.827 98.4941C124.773 98.0668 124.658 97.756 124.482 97.5618C124.309 97.3675 124.07 97.2704 123.762 97.2704C123.51 97.2704 123.32 97.3438 123.192 97.4905C123.064 97.633 123 97.8078 123 98.015C123 98.166 123.052 98.302 123.158 98.4229C123.26 98.548 123.503 98.6646 123.887 98.7725C124.837 99.0487 125.517 99.3293 125.926 99.6142C126.339 99.8947 126.638 100.244 126.823 100.663C127.012 101.082 127.106 101.55 127.106 102.068C127.106 102.677 126.981 103.238 126.732 103.751C126.483 104.265 126.134 104.656 125.686 104.923C125.238 105.187 124.674 105.318 123.993 105.318C122.797 105.318 121.968 105.007 121.508 104.386C121.047 103.764 120.787 102.974 120.726 102.016Z" fill="white"/>
<path d="M127.711 95.6647H134.317V98.0085H132.1V105.156H129.927V98.0085H127.711V95.6647Z" fill="white"/>
<path d="M133.674 102.515H135.761V105.156H133.674V102.515Z" fill="white"/>
<path d="M144.463 95.5029V105.156H142.486V98.8308C142.166 99.1588 141.856 99.4243 141.556 99.6271C141.258 99.83 140.884 100.024 140.433 100.21V98.0473C141.098 97.7581 141.615 97.4107 141.983 97.0049C142.35 96.5992 142.638 96.0985 142.846 95.5029H144.463Z" fill="white"/>
<path d="M146.622 95.6647H152.326V97.4452C151.83 98.0495 151.416 98.7034 151.083 99.407C150.68 100.262 150.362 101.213 150.128 102.262C149.943 103.078 149.818 104.043 149.754 105.156H147.807C147.96 103.607 148.201 102.308 148.531 101.259C148.86 100.21 149.382 99.0876 150.095 97.892H146.622V95.6647Z" fill="white"/>
<path d="M154.316 100.054C154.009 99.8343 153.786 99.5883 153.645 99.3164C153.453 98.9451 153.357 98.5178 153.357 98.0344C153.357 97.2402 153.634 96.5906 154.187 96.0856C154.619 95.6971 155.19 95.5029 155.9 95.5029C156.84 95.5029 157.534 95.7446 157.982 96.228C158.433 96.7114 158.658 97.32 158.658 98.0538C158.658 98.4811 158.568 98.8804 158.389 99.2516C158.255 99.5279 158.044 99.7955 157.756 100.054C158.137 100.3 158.42 100.626 158.605 101.032C158.794 101.438 158.888 101.887 158.888 102.379C158.888 102.854 158.807 103.298 158.644 103.713C158.484 104.123 158.285 104.44 158.049 104.664C157.815 104.889 157.523 105.053 157.171 105.156C156.822 105.264 156.45 105.318 156.053 105.318C155.308 105.318 154.739 105.2 154.345 104.962C153.952 104.725 153.653 104.375 153.448 103.913C153.243 103.451 153.141 102.936 153.141 102.366C153.141 101.809 153.237 101.339 153.429 100.954C153.621 100.566 153.917 100.266 154.316 100.054ZM155.194 98.1898C155.194 98.5178 155.269 98.7833 155.42 98.9861C155.573 99.1847 155.776 99.284 156.029 99.284C156.253 99.284 156.437 99.1847 156.581 98.9861C156.725 98.7876 156.797 98.5308 156.797 98.2157C156.797 97.8876 156.721 97.6222 156.571 97.4193C156.421 97.2121 156.229 97.1085 155.995 97.1085C155.759 97.1085 155.565 97.21 155.415 97.4128C155.268 97.6114 155.194 97.8704 155.194 98.1898ZM155.089 102.275C155.089 102.694 155.183 103.037 155.372 103.305C155.561 103.568 155.776 103.7 156.019 103.7C156.253 103.7 156.462 103.566 156.648 103.298C156.833 103.026 156.926 102.683 156.926 102.269C156.926 101.85 156.832 101.507 156.643 101.239C156.458 100.972 156.242 100.838 155.995 100.838C155.752 100.838 155.54 100.967 155.357 101.226C155.178 101.485 155.089 101.835 155.089 102.275Z" fill="white"/>
<path d="M161.589 98.4099L159.742 97.9632C159.896 97.169 160.19 96.5604 160.625 96.1374C161.063 95.7144 161.682 95.5029 162.481 95.5029C163.399 95.5029 164.063 95.7338 164.472 96.1956C164.882 96.6575 165.086 97.238 165.086 97.9373C165.086 98.3473 165.003 98.7185 164.837 99.0509C164.671 99.3833 164.42 99.6746 164.084 99.925C164.356 100.016 164.563 100.121 164.707 100.242C164.941 100.436 165.122 100.693 165.249 101.013C165.381 101.328 165.446 101.705 165.446 102.146C165.446 102.698 165.339 103.229 165.125 103.738C164.91 104.243 164.602 104.634 164.199 104.91C163.796 105.182 163.267 105.318 162.611 105.318C161.971 105.318 161.466 105.217 161.095 105.014C160.727 104.811 160.423 104.515 160.184 104.127C159.947 103.734 159.765 103.242 159.637 102.651L161.589 102.301C161.666 102.832 161.784 103.201 161.944 103.408C162.107 103.611 162.314 103.713 162.563 103.713C162.825 103.713 163.043 103.583 163.215 103.324C163.391 103.065 163.479 102.72 163.479 102.288C163.479 101.848 163.395 101.507 163.225 101.265C163.059 101.023 162.832 100.903 162.544 100.903C162.39 100.903 162.179 100.954 161.911 101.058L162.011 99.1739C162.12 99.1955 162.205 99.2063 162.266 99.2063C162.521 99.2063 162.734 99.0962 162.904 98.8761C163.076 98.6559 163.163 98.3948 163.163 98.0927C163.163 97.8035 163.099 97.5725 162.971 97.3999C162.843 97.2272 162.667 97.1409 162.443 97.1409C162.213 97.1409 162.026 97.2359 161.882 97.4258C161.738 97.6114 161.64 97.9394 161.589 98.4099Z" fill="white"/>
</g>
<defs>
<clipPath id="clip0_1632_616">
<rect width="280" height="120" fill="white"/>
</clipPath>
</defs>
</svg>
